<?xml version="1.0" encoding="utf-8"?>
<!-- Generator: Adobe Illustrator 25.1.0, SVG Export Plug-In . SVG Version: 6.00 Build 0)  -->
<svg version="1.1" id="Layer_1" xmlns="http://www.w3.org/2000/svg" xmlns:xlink="http://www.w3.org/1999/xlink" x="0px" y="0px"
	 viewBox="0 0 238.3 67.8" style="enable-background:new 0 0 238.3 67.8;" xml:space="preserve">
<style type="text/css">
	.st0{fill:#F1BA42;}
	.st1{fill:#3C251D;}
</style>
<g>
	<g>
		<path class="st0" d="M29.7,50.8c-2.4,0-4.7-0.4-6.9-1.3s-4-2.1-5.6-3.7c-1.6-1.6-2.8-3.5-3.8-5.6C12.5,38,12,35.7,12,33.1V33
			c0-2.5,0.5-4.8,1.4-7c0.9-2.2,2.2-4.1,3.8-5.7s3.5-2.9,5.7-3.8s4.6-1.4,7.2-1.4c1.8,0,3.4,0.2,4.8,0.5c1.4,0.3,2.7,0.8,3.9,1.5
			c1.2,0.6,2.3,1.4,3.2,2.3c1,0.9,1.8,1.8,2.6,2.9l-7.1,5.6c-1-1.2-2.1-2.2-3.2-2.9c-1.2-0.7-2.6-1.1-4.3-1.1
			c-1.2,0-2.3,0.2-3.3,0.7s-1.8,1.1-2.6,1.9c-0.7,0.8-1.3,1.8-1.7,2.9c-0.4,1.1-0.6,2.3-0.6,3.5V33c0,1.3,0.2,2.5,0.6,3.6
			c0.4,1.1,1,2.1,1.7,2.9c0.7,0.8,1.6,1.5,2.6,1.9c1,0.5,2.1,0.7,3.3,0.7c0.9,0,1.7-0.1,2.4-0.3c0.7-0.2,1.4-0.5,2-0.9
			c0.6-0.4,1.2-0.8,1.7-1.3s1.1-1.1,1.6-1.7l7.1,5.1c-0.8,1.1-1.7,2.1-2.7,3.1c-1,0.9-2.1,1.8-3.3,2.4c-1.2,0.7-2.6,1.2-4.1,1.6
			C33.3,50.6,31.6,50.8,29.7,50.8z"/>
		<path class="st0" d="M48.9,15.9h9.5v13.9l11.8-13.9h11.2L68.5,30.6l13.4,19.5H70.5l-8.6-12.7l-3.5,3.9v8.8h-9.5V15.9z"/>
	</g>
</g>
<g>
	<path class="st1" d="M84.9,22.6h4v5.5h5.2v-5.5h4v14.6h-4v-5.5h-5.2v5.5h-4V22.6z"/>
	<path class="st1" d="M100.8,22.6h11.7V26h-7.7v2.3h7v3.2h-7v2.3h7.9v3.5h-11.9V22.6z"/>
	<path class="st1" d="M119.8,22.5h3.9l6.2,14.7h-4.3l-1-2.7h-5.6l-1,2.7h-4.3L119.8,22.5z M123.3,31.4l-1.6-4.2l-1.7,4.2H123.3z"/>
	<path class="st1" d="M134.9,26.1h-4.4v-3.5h12.9v3.5h-4.4v11.1h-4V26.1z"/>
	<path class="st1" d="M145.2,22.6h4v5.5h5.2v-5.5h4v14.6h-4v-5.5h-5.2v5.5h-4V22.6z"/>
</g>
<g>
	<path class="st1" d="M90.4,48.5h-5.1l-0.5-2.1l5.5-6.5h3v6.3h1.3v2.3h-1.4v2h-2.8V48.5z M90.4,46.4v-3.1l-2.5,3.1H90.4z"/>
	<path class="st1" d="M100.2,40h5.4c0.6,0,1.2,0.1,1.7,0.2c0.5,0.2,0.9,0.4,1.2,0.7c0.2,0.2,0.4,0.5,0.5,0.7c0.1,0.2,0.2,0.6,0.2,1
		l0,0c0,0.6-0.2,1.1-0.5,1.4c-0.3,0.4-0.7,0.6-1.1,0.9c0.6,0.2,1.1,0.5,1.5,0.9c0.4,0.4,0.6,1,0.6,1.7l0,0c0,0.9-0.3,1.6-1,2.2
		c-0.7,0.5-1.7,0.8-3,0.8h-5.5L100.2,40L100.2,40z M104.8,44.3c0.5,0,0.8-0.1,1-0.2c0.2-0.2,0.3-0.4,0.3-0.7l0,0
		c0-0.3-0.1-0.5-0.3-0.6c-0.2-0.2-0.6-0.2-1-0.2H103v1.8H104.8z M105.2,48.2c0.5,0,0.8-0.1,1-0.2c0.2-0.2,0.3-0.4,0.3-0.7l0,0
		c0-0.3-0.1-0.5-0.3-0.7c-0.2-0.2-0.6-0.2-1-0.2H103v1.9H105.2z"/>
	<path class="st1" d="M110.9,40h2.9v10.5h-2.9V40z"/>
	<path class="st1" d="M119.9,50.8c-1,0-1.8-0.2-2.7-0.4c-0.9-0.3-1.6-0.7-2.3-1.3l1.6-1.9c1,0.8,2.2,1.3,3.4,1.3
		c0.4,0,0.7-0.1,0.9-0.2c0.2-0.2,0.3-0.3,0.3-0.6l0,0c0-0.1,0-0.2-0.1-0.3c-0.1-0.1-0.2-0.2-0.2-0.2c-0.2-0.1-0.3-0.2-0.6-0.2
		c-0.2-0.1-0.5-0.2-0.9-0.2c-0.6-0.2-1-0.2-1.5-0.4c-0.5-0.2-0.9-0.3-1.3-0.6c-0.3-0.2-0.6-0.6-0.8-0.9c-0.2-0.4-0.3-0.8-0.3-1.4
		l0,0c0-0.5,0.1-1,0.2-1.4c0.2-0.4,0.5-0.8,0.8-1c0.3-0.2,0.8-0.6,1.3-0.7c0.5-0.2,1-0.2,1.7-0.2c0.9,0,1.7,0.1,2.4,0.3
		c0.7,0.2,1.4,0.6,1.9,1l-1.4,2.1c-0.5-0.3-1-0.6-1.4-0.8c-0.5-0.2-1-0.2-1.4-0.2c-0.3,0-0.6,0.1-0.8,0.2c-0.2,0.2-0.2,0.3-0.2,0.5
		l0,0c0,0.1,0,0.2,0.1,0.3c0.1,0.1,0.2,0.2,0.3,0.2c0.2,0.1,0.3,0.2,0.6,0.2c0.2,0.1,0.6,0.2,0.9,0.2c0.6,0.2,1.1,0.3,1.6,0.5
		c0.5,0.2,0.9,0.4,1.2,0.6c0.3,0.2,0.6,0.6,0.8,0.9c0.2,0.3,0.2,0.8,0.2,1.3l0,0c0,0.6-0.1,1-0.3,1.4c-0.2,0.4-0.5,0.8-0.9,1
		c-0.4,0.3-0.8,0.5-1.4,0.6C121.1,50.7,120.6,50.8,119.9,50.8z"/>
	<path class="st1" d="M125.6,40h2.9V44h3.8V40h2.9v10.5h-2.9v-4h-3.8v4h-2.9V40z"/>
	<path class="st1" d="M142.3,50.8c-0.8,0-1.5-0.2-2.3-0.4c-0.7-0.3-1.3-0.6-1.8-1.1c-0.5-0.5-0.9-1-1.2-1.8
		c-0.3-0.6-0.4-1.4-0.4-2.1l0,0c0-0.7,0.2-1.4,0.4-2.1c0.3-0.6,0.7-1.3,1.2-1.8s1.1-0.9,1.8-1.2c0.6-0.3,1.4-0.4,2.3-0.4
		s1.5,0.2,2.3,0.4c0.7,0.2,1.3,0.6,1.8,1.1c0.5,0.5,0.9,1,1.2,1.8c0.3,0.6,0.4,1.4,0.4,2.1l0,0c0,0.7-0.2,1.4-0.4,2.1
		c-0.3,0.6-0.7,1.3-1.2,1.8s-1.1,0.9-1.8,1.2C144,50.7,143.1,50.8,142.3,50.8z M142.3,48.1c0.4,0,0.8-0.1,1.1-0.2
		c0.3-0.2,0.6-0.3,0.9-0.6c0.2-0.2,0.4-0.6,0.6-0.9c0.2-0.3,0.2-0.7,0.2-1l0,0c0-0.4-0.1-0.7-0.2-1c-0.2-0.3-0.3-0.6-0.6-0.9
		c-0.2-0.2-0.6-0.5-0.9-0.6c-0.3-0.2-0.7-0.2-1.1-0.2s-0.8,0.1-1.1,0.2c-0.3,0.2-0.6,0.3-0.9,0.6c-0.2,0.2-0.4,0.6-0.6,0.9
		c-0.2,0.3-0.2,0.7-0.2,1l0,0c0,0.4,0.1,0.7,0.2,1c0.2,0.3,0.3,0.6,0.6,0.9c0.2,0.2,0.5,0.5,0.9,0.6
		C141.6,48.1,141.9,48.1,142.3,48.1z"/>
	<path class="st1" d="M149.6,40h4.5c0.6,0,1.3,0.1,1.8,0.2c0.6,0.2,1,0.4,1.4,0.7c0.4,0.3,0.6,0.7,0.9,1.2c0.2,0.5,0.3,1,0.3,1.5
		l0,0c0,0.6-0.1,1.2-0.3,1.6c-0.2,0.5-0.6,0.9-1,1.2c-0.4,0.3-0.9,0.6-1.4,0.7c-0.6,0.2-1.1,0.2-1.8,0.2h-1.4v3h-2.9V40z
		 M153.8,45.3c0.5,0,1-0.2,1.2-0.4c0.3-0.2,0.5-0.6,0.5-1l0,0c0-0.5-0.2-0.8-0.5-1c-0.3-0.2-0.7-0.3-1.2-0.3h-1.4v2.8H153.8z"/>
</g>
<path class="st1" d="M85.3,18.4L85.3,18.4c0-1.6,1.1-2.8,2.8-2.8c1,0,1.7,0.3,2.1,0.8l-0.8,0.9c-0.3-0.3-0.8-0.6-1.3-0.6
	c-0.9,0-1.6,0.8-1.6,1.7l0,0c0,0.9,0.7,1.7,1.6,1.7c0.7,0,1-0.2,1.5-0.7l0.8,0.8c-0.6,0.6-1.2,1-2.2,1C86.5,21.2,85.3,20,85.3,18.4z
	"/>
<path class="st1" d="M91.2,15.7h1.2v4.4h2.7v1.1h-3.9V15.7z"/>
<path class="st1" d="M98,15.6h1.1l2.4,5.5h-1.2l-0.4-1.2h-2.4L97,21.1h-1.2L98,15.6z M99.2,18.9l-0.7-1.8l-0.7,1.8H99.2z"/>
<path class="st1" d="M102.2,15.7h2.5c0.7,0,1.2,0.2,1.6,0.6c0.3,0.3,0.4,0.8,0.4,1.2l0,0c0,0.9-0.4,1.5-1.1,1.7l1.3,1.9h-1.3
	l-1.1-1.8l0,0h-0.9v1.8h-1.2v-5.4H102.2z M104.6,18.3c0.6,0,0.9-0.3,0.9-0.8l0,0c0-0.6-0.3-0.8-0.9-0.8h-1.2v1.6H104.6z"/>
<path class="st1" d="M107.9,15.7h4.2v1.1h-2.9V18h2.6v1.1h-2.6v1.1h2.9v1.1h-4.2V15.7z"/>
<path class="st1" d="M113.1,15.7h1.1l2.6,3.4v-3.4h1.2v5.5h-1l-2.7-3.5v3.5h-1.2V15.7z"/>
<path class="st1" d="M119,18.4L119,18.4c0-1.6,1.1-2.8,2.8-2.8c1,0,1.7,0.3,2.1,0.8l-0.8,0.9c-0.4-0.3-0.9-0.6-1.3-0.6
	c-0.9,0-1.6,0.8-1.6,1.7l0,0c0,0.9,0.7,1.7,1.6,1.7c0.7,0,1-0.2,1.5-0.7l0.8,0.8c-0.6,0.6-1.2,1-2.2,1C120.2,21.2,119,20,119,18.4z"
	/>
<path class="st1" d="M124.9,15.7h4.2v1.1h-2.9V18h2.6v1.1h-2.6v1.1h2.9v1.1h-4.2V15.7z"/>
<path class="st1" d="M132.6,15.7h1.2v2.4l2.2-2.4h1.5l-2.2,2.4l2.4,3.1h-1.5l-1.7-2.4l-0.7,0.7v1.7h-1.2V15.7z"/>
<path class="st1" d="M138.2,15.7h4.2v1.1h-2.9V18h2.6v1.1h-2.6v1.1h2.9v1.1h-4.2V15.7z"/>
<path class="st1" d="M143.5,15.7h1.2v4.4h2.7v1.1h-3.9V15.7z"/>
<path class="st1" d="M148.3,15.7h2.6c0.7,0,1.1,0.2,1.5,0.4c0.2,0.2,0.3,0.6,0.3,0.9l0,0c0,0.6-0.3,1-0.7,1.1c0.7,0.2,1,0.6,1,1.3
	l0,0c0,1-0.8,1.5-2,1.5h-2.6v-5.3H148.3z M150.6,17.8c0.6,0,0.9-0.2,0.9-0.6l0,0c0-0.3-0.2-0.6-0.8-0.6h-1.2v1.1H150.6z M150.9,20.1
	c0.6,0,0.9-0.2,0.9-0.6l0,0c0-0.3-0.2-0.6-0.9-0.6h-1.3v1.1H150.9z"/>
<path class="st1" d="M155.2,19l-2.1-3.3h1.3l1.3,2.1l1.3-2.1h1.3l-2.1,3.3v2.1H155V19H155.2z"/>
<path class="st1" d="M145.3-24.7h1.1v1.9h2v-1.9h1.1v4.9h-1.1v-2h-2v1.9h-1.1V-24.7z"/>
<path class="st1" d="M150.6-24.7h3.7v1h-2.6v1h2.3v1h-2.3v1h2.6v1h-3.7V-24.7z"/>
<path class="st1" d="M156.9-24.8h1l2.1,4.9h-1.1l-0.4-1.1h-2.1l-0.4,1.1h-1.1L156.9-24.8z M158-21.9l-0.6-1.6l-0.6,1.6H158z"/>
<path class="st1" d="M161.2-23.7h-1.5v-1h4v1h-1.5v3.9h-1.1v-3.9H161.2z"/>
<path class="st1" d="M164.6-24.7h1.1v1.9h2v-1.9h1.1v4.9h-1.1v-2h-2v1.9h-1.1V-24.7z"/>
<g>
	<path class="st1" d="M10.6,53.7h3.3v0.8h-2.4v0.9h2v0.8h-2V58h-0.9V53.7z"/>
	<path class="st1" d="M14.4,55.8L14.4,55.8c0-1.2,1-2.2,2.3-2.2s2.3,1,2.3,2.2l0,0c0,1.2-1,2.2-2.3,2.2S14.4,57.1,14.4,55.8z
		 M18.1,55.8L18.1,55.8c0-0.7-0.6-1.4-1.3-1.4s-1.3,0.6-1.3,1.4l0,0c0,0.7,0.6,1.4,1.3,1.4S18.1,56.7,18.1,55.8z"/>
	<path class="st1" d="M20,53.7h1.9c0.6,0,1,0.2,1.3,0.5c0.3,0.3,0.4,0.6,0.4,1l0,0c0,0.7-0.4,1.1-0.9,1.4l1,1.6h-1.1l-0.9-1.4l0,0
		h-0.7v1.4H20V53.7z M21.8,55.8c0.5,0,0.7-0.3,0.7-0.6l0,0c0-0.4-0.3-0.6-0.7-0.6h-0.9v1.3H21.8z"/>
	<path class="st1" d="M26.3,53.7h2c0.5,0,0.9,0.1,1.1,0.4c0.2,0.2,0.3,0.5,0.3,0.7l0,0c0,0.5-0.3,0.7-0.6,0.9
		c0.5,0.2,0.8,0.5,0.8,1.1l0,0c0,0.8-0.6,1.2-1.7,1.2h-2V53.7z M28.1,55.5c0.5,0,0.6-0.1,0.6-0.5l0,0c0-0.3-0.2-0.5-0.6-0.5h-0.9
		v0.9H28.1z M28.4,57.2c0.5,0,0.6-0.2,0.6-0.5l0,0c0-0.3-0.2-0.5-0.7-0.5h-1.1v0.9H28.4z"/>
	<path class="st1" d="M30.8,53.7h0.9v4.4h-0.9V53.7z"/>
	<path class="st1" d="M32.6,57.4l0.6-0.6c0.4,0.3,0.8,0.6,1.3,0.6c0.4,0,0.6-0.2,0.6-0.4l0,0c0-0.3-0.2-0.4-0.8-0.6
		c-0.8-0.2-1.5-0.5-1.5-1.3l0,0c0-0.8,0.6-1.3,1.5-1.3c0.6,0,1.2,0.2,1.6,0.6l-0.4,0.6c-0.4-0.3-0.7-0.5-1.1-0.5s-0.6,0.2-0.6,0.4
		l0,0c0,0.3,0.2,0.4,0.9,0.6c0.9,0.2,1.4,0.6,1.4,1.3l0,0c0,0.8-0.6,1.4-1.6,1.4C33.8,58.1,33.1,57.9,32.6,57.4z"/>
	<path class="st1" d="M36.8,53.7h0.9v1.8h1.8v-1.8h0.9v4.4h-0.9v-1.8h-1.8v1.8h-0.9V53.7z"/>
	<path class="st1" d="M41.4,55.8L41.4,55.8c0-1.2,1-2.2,2.3-2.2s2.3,1,2.3,2.2l0,0c0,1.2-1,2.2-2.3,2.2
		C42.4,58.1,41.4,57.1,41.4,55.8z M45,55.8L45,55.8c0-0.7-0.6-1.4-1.3-1.4c-0.7,0-1.3,0.6-1.3,1.4l0,0c0,0.7,0.6,1.4,1.3,1.4
		C44.5,57.2,45,56.7,45,55.8z"/>
	<path class="st1" d="M46.9,53.7h1.8c1,0,1.7,0.6,1.7,1.5l0,0c0,1-0.7,1.6-1.8,1.6h-0.7v1.3h-0.9V53.7z M48.6,55.9
		c0.5,0,0.7-0.3,0.7-0.6l0,0c0-0.5-0.3-0.6-0.7-0.6h-0.7v1.3H48.6z"/>
	<path class="st1" d="M53,53.7h0.9v4.4H53V53.7z"/>
	<path class="st1" d="M55,53.7h0.9l2,2.7v-2.7h0.9v4.4h-0.8l-2.1-2.8v2.8H55V53.7z"/>
	<path class="st1" d="M62.8,54.5h-1.3v-0.9h3.6v0.9h-1.3V58h-0.9L62.8,54.5L62.8,54.5z"/>
	<path class="st1" d="M65.9,53.7h0.9v1.8h1.8v-1.8h0.9v4.4h-0.9v-1.8h-1.8v1.8h-0.9V53.7z"/>
	<path class="st1" d="M70.6,53.7h3.2v0.8h-2.3v0.9h2v0.8h-2v0.9h2.4v0.8h-3.3V53.7z"/>
	<path class="st1" d="M76.4,55.8L76.4,55.8c0-1.2,0.9-2.2,2.3-2.2c0.8,0,1.3,0.3,1.8,0.6L79.9,55c-0.4-0.3-0.6-0.5-1.1-0.5
		c-0.7,0-1.3,0.6-1.3,1.4l0,0c0,0.7,0.6,1.4,1.3,1.4c0.5,0,0.8-0.2,1.1-0.6l0.6,0.6c-0.5,0.5-0.9,0.7-1.8,0.7
		C77.4,58.1,76.4,57.1,76.4,55.8z"/>
	<path class="st1" d="M81.2,53.7h0.9v1.8h1.8v-1.8h0.9v4.4h-0.9v-1.8h-1.8v1.8h-0.9V53.7z"/>
	<path class="st1" d="M86,53.7h1.9c0.6,0,1,0.2,1.3,0.5c0.3,0.3,0.4,0.6,0.4,1l0,0c0,0.7-0.4,1.1-0.9,1.4l1,1.6h-1.1l-0.9-1.4l0,0
		h-0.7v1.4H86V53.7z M87.8,55.8c0.5,0,0.7-0.3,0.7-0.6l0,0c0-0.4-0.3-0.6-0.7-0.6h-0.9v1.3H87.8z"/>
	<path class="st1" d="M90.5,53.7h0.9v4.4h-0.9V53.7z"/>
	<path class="st1" d="M92.2,57.4l0.6-0.6c0.4,0.3,0.8,0.6,1.3,0.6c0.4,0,0.6-0.2,0.6-0.4l0,0c0-0.3-0.2-0.4-0.8-0.6
		c-0.8-0.2-1.5-0.5-1.5-1.3l0,0c0-0.8,0.6-1.3,1.5-1.3c0.6,0,1.2,0.2,1.6,0.6l-0.5,0.6c-0.4-0.3-0.7-0.5-1.1-0.5
		c-0.4,0-0.6,0.2-0.6,0.4l0,0c0,0.3,0.2,0.4,0.9,0.6c0.9,0.2,1.4,0.6,1.4,1.3l0,0c0,0.8-0.6,1.4-1.6,1.4
		C93.4,58.1,92.7,57.9,92.2,57.4z"/>
	<path class="st1" d="M97.5,54.5h-1.3v-0.9h3.6v0.9h-1.4V58h-0.9V54.5z"/>
	<path class="st1" d="M100.5,53.7h0.9v4.4h-0.9V53.7z"/>
	<path class="st1" d="M104.1,53.6h0.9l1.9,4.4h-1l-0.4-1h-1.9l-0.4,1h-1L104.1,53.6z M105.1,56.2l-0.6-1.4l-0.6,1.4H105.1z"/>
	<path class="st1" d="M107.5,53.7h0.9l2,2.7v-2.7h0.9v4.4h-0.8l-2.1-2.8v2.8h-0.9C107.5,58.1,107.5,53.7,107.5,53.7z"/>
	<path class="st1" d="M114.3,53.7h1l1.1,1.9l1.1-1.9h1v4.4h-0.9v-2.9l-1.2,1.9l0,0l-1.2-1.9V58h-0.9L114.3,53.7L114.3,53.7z"/>
	<path class="st1" d="M119.6,53.7h3.2v0.8h-2.2v0.9h2v0.8h-2v0.9h2.4v0.8h-3.3L119.6,53.7L119.6,53.7z"/>
	<path class="st1" d="M124.8,54.5h-1.3v-0.9h3.6v0.9h-1.3V58h-0.9L124.8,54.5L124.8,54.5z"/>
	<path class="st1" d="M127.9,53.7h0.9v1.8h1.8v-1.8h0.9v4.4h-0.9v-1.8h-1.8v1.8h-0.9V53.7z"/>
	<path class="st1" d="M132.4,55.8L132.4,55.8c0-1.2,1-2.2,2.3-2.2s2.3,1,2.3,2.2l0,0c0,1.2-1,2.2-2.3,2.2
		C133.4,58.1,132.4,57.1,132.4,55.8z M136,55.8L136,55.8c0-0.7-0.6-1.4-1.3-1.4c-0.7,0-1.3,0.6-1.3,1.4l0,0c0,0.7,0.6,1.4,1.3,1.4
		C135.5,57.2,136,56.7,136,55.8z"/>
	<path class="st1" d="M137.9,53.7h1.7c1.4,0,2.3,0.9,2.3,2.1l0,0c0,1.2-0.9,2.1-2.3,2.1h-1.7V53.7z M139.6,57.1
		c0.7,0,1.3-0.6,1.3-1.3l0,0c0-0.7-0.6-1.3-1.3-1.3h-0.7v2.6C138.8,57.1,139.6,57.1,139.6,57.1z"/>
	<path class="st1" d="M142.8,53.7h0.9v4.4h-0.9V53.7z"/>
	<path class="st1" d="M144.6,57.4l0.6-0.6c0.4,0.3,0.8,0.6,1.3,0.6c0.4,0,0.6-0.2,0.6-0.4l0,0c0-0.3-0.2-0.4-0.8-0.6
		c-0.8-0.2-1.5-0.5-1.5-1.3l0,0c0-0.8,0.6-1.3,1.5-1.3c0.6,0,1.2,0.2,1.6,0.6l-0.5,0.7c-0.4-0.3-0.7-0.5-1.1-0.5s-0.6,0.2-0.6,0.4
		l0,0c0,0.3,0.2,0.4,0.9,0.6c0.9,0.2,1.4,0.6,1.4,1.3l0,0c0,0.8-0.6,1.4-1.6,1.4C145.8,58.1,145,57.9,144.6,57.4z"/>
	<path class="st1" d="M149.8,54.5h-1.3v-0.9h3.6v0.9h-1.3V58h-0.9L149.8,54.5L149.8,54.5z"/>
	<path class="st1" d="M154.7,53.7h3.2v0.8h-2.3v0.9h2v0.8h-2v0.9h2.4v0.8h-3.3V53.7z"/>
	<path class="st1" d="M158.9,53.7h1.8c1,0,1.7,0.6,1.7,1.5l0,0c0,1-0.7,1.6-1.8,1.6h-0.7v1.3h-0.9V53.7z M160.5,55.9
		c0.5,0,0.7-0.3,0.7-0.6l0,0c0-0.5-0.3-0.6-0.7-0.6h-0.7v1.3H160.5z"/>
	<path class="st1" d="M163,53.7h0.9v4.4H163V53.7z"/>
	<path class="st1" d="M164.8,57.4l0.6-0.6c0.4,0.3,0.8,0.6,1.3,0.6c0.4,0,0.6-0.2,0.6-0.4l0,0c0-0.3-0.2-0.4-0.8-0.6
		c-0.8-0.2-1.5-0.5-1.5-1.3l0,0c0-0.8,0.6-1.3,1.5-1.3c0.6,0,1.2,0.2,1.6,0.6l-0.5,0.7c-0.4-0.3-0.7-0.5-1.1-0.5
		c-0.4,0-0.6,0.2-0.6,0.4l0,0c0,0.3,0.2,0.4,0.9,0.6c0.9,0.2,1.4,0.6,1.4,1.3l0,0c0,0.8-0.6,1.4-1.6,1.4
		C166,58.1,165.3,57.9,164.8,57.4z"/>
	<path class="st1" d="M168.9,55.8L168.9,55.8c0-1.2,0.9-2.2,2.3-2.2c0.8,0,1.3,0.3,1.8,0.6l-0.6,0.7c-0.4-0.3-0.6-0.5-1.1-0.5
		c-0.7,0-1.3,0.6-1.3,1.4l0,0c0,0.7,0.6,1.4,1.3,1.4c0.5,0,0.8-0.2,1.1-0.6l0.6,0.6c-0.5,0.5-0.9,0.7-1.8,0.7
		C169.8,58.1,168.9,57.1,168.9,55.8z"/>
	<path class="st1" d="M173.3,55.8L173.3,55.8c0-1.2,1-2.2,2.3-2.2c1.3,0,2.3,1,2.3,2.2l0,0c0,1.2-1,2.2-2.3,2.2
		C174.3,58.1,173.3,57.1,173.3,55.8z M176.9,55.8L176.9,55.8c0-0.7-0.6-1.4-1.3-1.4c-0.7,0-1.3,0.6-1.3,1.4l0,0
		c0,0.7,0.6,1.4,1.3,1.4C176.4,57.2,176.9,56.7,176.9,55.8z"/>
	<path class="st1" d="M178.8,53.7h1.8c1,0,1.7,0.6,1.7,1.5l0,0c0,1-0.7,1.6-1.8,1.6h-0.7v1.3h-0.9V53.7z M180.5,55.9
		c0.5,0,0.7-0.3,0.7-0.6l0,0c0-0.5-0.3-0.6-0.7-0.6h-0.7v1.3H180.5z"/>
	<path class="st1" d="M184.1,53.6h0.9l1.9,4.4h-1l-0.4-1h-1.9l-0.4,1h-1L184.1,53.6z M185.1,56.2l-0.6-1.4l-0.6,1.4H185.1z"/>
	<path class="st1" d="M187.5,53.7h0.9v3.5h2.1v0.8h-3.2L187.5,53.7L187.5,53.7z"/>
	<path class="st1" d="M193,55.8L193,55.8c0-1.2,0.9-2.2,2.3-2.2c0.8,0,1.3,0.3,1.8,0.6l-0.6,0.7c-0.4-0.3-0.6-0.5-1.1-0.5
		c-0.7,0-1.3,0.6-1.3,1.4l0,0c0,0.7,0.6,1.4,1.3,1.4c0.5,0,0.8-0.2,1.1-0.6l0.6,0.6c-0.5,0.5-0.9,0.7-1.8,0.7
		C193.9,58.1,193,57.1,193,55.8z"/>
	<path class="st1" d="M197.8,53.7h0.9v1.8h1.8v-1.8h0.9v4.4h-0.9v-1.8h-1.8v1.8h-0.9V53.7z"/>
	<path class="st1" d="M202.4,56.2v-2.5h0.9v2.5c0,0.7,0.4,1.1,0.9,1.1c0.6,0,0.9-0.4,0.9-1v-2.5h0.9v2.5c0,1.3-0.7,1.9-1.9,1.9
		C203.2,58.1,202.4,57.4,202.4,56.2z"/>
	<path class="st1" d="M207.2,53.7h1.9c0.6,0,1,0.2,1.3,0.5c0.3,0.3,0.4,0.6,0.4,1l0,0c0,0.7-0.4,1.1-0.9,1.4l1,1.6h-1.1l-0.9-1.4
		l0,0h-0.7v1.4h-0.9V53.7z M209.1,55.8c0.5,0,0.7-0.3,0.7-0.6l0,0c0-0.4-0.3-0.6-0.7-0.6h-0.9v1.3H209.1z"/>
	<path class="st1" d="M211.5,55.8L211.5,55.8c0-1.2,0.9-2.2,2.3-2.2c0.8,0,1.3,0.3,1.8,0.6l-0.6,0.7c-0.4-0.3-0.6-0.5-1.1-0.5
		c-0.7,0-1.3,0.6-1.3,1.4l0,0c0,0.7,0.6,1.4,1.3,1.4c0.5,0,0.8-0.2,1.1-0.6l0.6,0.6c-0.5,0.5-0.9,0.7-1.8,0.7
		C212.4,58.1,211.5,57.1,211.5,55.8z"/>
	<path class="st1" d="M216.3,53.7h0.9v1.8h1.8v-1.8h0.9v4.4H219v-1.8h-1.8v1.8h-0.9V53.7z"/>
</g>
<path class="st0" d="M162.3,43.1l12.9-9.8c1.6-1.2,2.7-2.3,3.4-3.2c0.7-0.9,1-1.9,1-3s-0.4-1.9-1.1-2.6c-0.7-0.6-1.6-0.9-2.8-0.9
	c-1.1,0-2.2,0.4-3.3,1.1c-1,0.7-2.2,1.8-3.6,3.4l-6.4-5.4c0.9-1.2,1.8-2.2,2.8-3.1c0.9-0.9,2-1.7,3.1-2.3c1.1-0.6,2.3-1.1,3.6-1.4
	c1.3-0.3,2.8-0.5,4.5-0.5c1.9,0,3.6,0.3,5.1,0.8c1.6,0.5,2.9,1.3,4,2.2s2,2.1,2.6,3.5s0.9,2.8,0.9,4.4v0.1c0,1.4-0.2,2.6-0.5,3.7
	s-0.9,2.1-1.6,3c-0.7,0.9-1.5,1.8-2.5,2.7s-2.1,1.7-3.4,2.7l-5.9,4.1h14.2v7.8h-27.2v-7.3H162.3z"/>
<path class="st0" d="M193,43.1l12.9-9.8c1.6-1.2,2.7-2.3,3.4-3.2c0.7-0.9,1-1.9,1-3s-0.4-1.9-1.1-2.6c-0.7-0.6-1.6-0.9-2.8-0.9
	s-2.2,0.4-3.3,1.1c-1,0.7-2.2,1.8-3.6,3.4l-6.4-5.4c0.9-1.2,1.8-2.2,2.8-3.1c0.9-0.9,2-1.7,3.1-2.3c1.1-0.6,2.3-1.1,3.6-1.4
	c1.3-0.3,2.8-0.5,4.5-0.5c1.9,0,3.6,0.3,5.1,0.8c1.6,0.5,2.9,1.3,4,2.2s2,2.1,2.6,3.5s0.9,2.8,0.9,4.4v0.1c0,1.4-0.2,2.6-0.5,3.7
	s-0.9,2.1-1.6,3c-0.7,0.9-1.5,1.8-2.5,2.7s-2.1,1.7-3.4,2.7l-5.9,4.1H220v7.8h-27.2v-7.3H193z"/>
</svg>
