<?xml version="1.0" encoding="utf-8"?>
<!-- Generator: Adobe Illustrator 25.2.3, SVG Export Plug-In . SVG Version: 6.00 Build 0)  -->
<svg version="1.1" id="Layer_1" xmlns="http://www.w3.org/2000/svg" xmlns:xlink="http://www.w3.org/1999/xlink" x="0px" y="0px"
	 viewBox="0 0 238.3 67.8" style="enable-background:new 0 0 238.3 67.8;" xml:space="preserve">
<style type="text/css">
	.st0{fill:#F1BA42;}
	.st1{fill:#3C251D;}
	.st2{fill:#F0BA42;}
</style>
<g>
	<g>
		<path class="st0" d="M22.7,184.9c-2.7,0-5.3-0.4-7.7-1.5c-2.5-1-4.5-2.4-6.3-4.1c-1.8-1.8-3.1-3.9-4.3-6.3c-1-2.5-1.6-5-1.6-7.9
			V165c0-2.8,0.6-5.4,1.6-7.8c1-2.5,2.5-4.6,4.3-6.4c1.8-1.8,3.9-3.2,6.4-4.3c2.5-1,5.1-1.6,8.1-1.6c2,0,3.8,0.2,5.4,0.6
			c1.6,0.3,3,0.9,4.4,1.7c1.3,0.7,2.6,1.6,3.6,2.6c1.1,1,2,2,2.9,3.2l-7.9,6.3c-1.1-1.3-2.4-2.5-3.6-3.2c-1.3-0.8-2.9-1.2-4.8-1.2
			c-1.3,0-2.6,0.2-3.7,0.8c-1.1,0.6-2,1.2-2.9,2.1c-0.8,0.9-1.5,2-1.9,3.2c-0.4,1.2-0.7,2.6-0.7,3.9v0.1c0,1.5,0.2,2.8,0.7,4
			s1.1,2.4,1.9,3.2c0.8,0.9,1.8,1.7,2.9,2.1c1.1,0.6,2.4,0.8,3.7,0.8c1,0,1.9-0.1,2.7-0.3c0.8-0.2,1.6-0.6,2.2-1
			c0.7-0.4,1.3-0.9,1.9-1.5c0.6-0.6,1.2-1.2,1.8-1.9l7.9,5.7c-0.9,1.2-1.9,2.4-3,3.5c-1.1,1-2.4,2-3.7,2.7c-1.3,0.8-2.9,1.3-4.6,1.8
			C26.7,184.7,24.8,184.9,22.7,184.9z"/>
		<path class="st0" d="M44.2,145.9h10.6v15.6L68,145.9h12.5l-14.4,16.5l15,21.8H68.4l-9.6-14.2l-3.9,4.4v9.8H44.2V145.9z"/>
	</g>
</g>
<g>
	<path class="st1" d="M84.5,153.4h4.5v6.2h5.8v-6.2h4.5v16.3h-4.5v-6.2h-5.8v6.2h-4.5V153.4z"/>
	<path class="st1" d="M102.3,153.4h13.1v3.8h-8.6v2.6h7.8v3.6h-7.8v2.6h8.8v3.9h-13.3V153.4z"/>
	<path class="st1" d="M123.5,153.2h4.4l6.9,16.5H130l-1.1-3h-6.3l-1.1,3h-4.8L123.5,153.2z M127.4,163.2l-1.8-4.7l-1.9,4.7
		C123.8,163.2,127.4,163.2,127.4,163.2z"/>
	<path class="st1" d="M140.4,157.3h-4.9v-3.9h14.4v3.9H145v12.4h-4.5v-12.4H140.4z"/>
	<path class="st1" d="M152,153.4h4.5v6.2h5.8v-6.2h4.5v16.3h-4.5v-6.2h-5.8v6.2H152V153.4z"/>
</g>
<g>
	<path class="st1" d="M90.6,182.3h-5.7l-0.6-2.4l6.2-7.3h3.4v7.1h1.5v2.6h-1.6v2.2h-3.1V182.3z M90.6,180v-3.5l-2.8,3.5H90.6z"/>
	<path class="st1" d="M101.6,172.8h6c0.7,0,1.3,0.1,1.9,0.2c0.6,0.2,1,0.4,1.3,0.8c0.2,0.2,0.4,0.6,0.6,0.8c0.1,0.2,0.2,0.7,0.2,1.1
		l0,0c0,0.7-0.2,1.2-0.6,1.6c-0.3,0.4-0.8,0.7-1.2,1c0.7,0.2,1.2,0.6,1.7,1s0.7,1.1,0.7,1.9l0,0c0,1-0.3,1.8-1.1,2.5
		c-0.8,0.6-1.9,0.9-3.4,0.9h-6.2L101.6,172.8L101.6,172.8z M106.7,177.6c0.6,0,0.9-0.1,1.1-0.2c0.2-0.2,0.3-0.4,0.3-0.8l0,0
		c0-0.3-0.1-0.6-0.3-0.7c-0.2-0.2-0.7-0.2-1.1-0.2h-2v2h2V177.6z M107.2,182c0.6,0,0.9-0.1,1.1-0.2c0.2-0.2,0.3-0.4,0.3-0.8l0,0
		c0-0.3-0.1-0.6-0.3-0.8c-0.2-0.2-0.7-0.2-1.1-0.2h-2.5v2.1h2.5V182z"/>
	<path class="st1" d="M113.6,172.8h3.2v11.8h-3.2V172.8z"/>
	<path class="st1" d="M123.6,184.9c-1.1,0-2-0.2-3-0.4c-1-0.3-1.8-0.8-2.6-1.5l1.8-2.1c1.1,0.9,2.5,1.5,3.8,1.5c0.4,0,0.8-0.1,1-0.2
		c0.2-0.2,0.3-0.3,0.3-0.7l0,0c0-0.1,0-0.2-0.1-0.3c-0.1-0.1-0.2-0.2-0.2-0.2c-0.2-0.1-0.3-0.2-0.7-0.2c-0.2-0.1-0.6-0.2-1-0.2
		c-0.7-0.2-1.1-0.2-1.7-0.4c-0.6-0.2-1-0.3-1.5-0.7c-0.3-0.2-0.7-0.7-0.9-1c-0.2-0.4-0.3-0.9-0.3-1.6l0,0c0-0.6,0.1-1.1,0.2-1.6
		c0.2-0.4,0.6-0.9,0.9-1.1c0.3-0.2,0.9-0.7,1.5-0.8c0.6-0.2,1.1-0.2,1.9-0.2c1,0,1.9,0.1,2.7,0.3c0.8,0.2,1.6,0.7,2.1,1.1l-1.6,2.4
		c-0.6-0.3-1.1-0.7-1.6-0.9c-0.6-0.2-1.1-0.2-1.6-0.2c-0.3,0-0.7,0.1-0.9,0.2c-0.2,0.2-0.2,0.3-0.2,0.6l0,0c0,0.1,0,0.2,0.1,0.3
		c0.1,0.1,0.2,0.2,0.3,0.2c0.2,0.1,0.3,0.2,0.7,0.2c0.2,0.1,0.7,0.2,1,0.2c0.7,0.2,1.2,0.3,1.8,0.6c0.6,0.2,1,0.4,1.3,0.7
		c0.3,0.2,0.7,0.7,0.9,1c0.2,0.3,0.2,0.9,0.2,1.5l0,0c0,0.7-0.1,1.1-0.3,1.6c-0.2,0.4-0.6,0.9-1,1.1c-0.4,0.3-0.9,0.6-1.6,0.7
		C125,184.8,124.4,184.9,123.6,184.9z"/>
	<path class="st1" d="M130,172.8h3.2v4.5h4.3v-4.5h3.2v11.8h-3.2v-4.5h-4.3v4.5H130V172.8z"/>
	<path class="st1" d="M148.7,184.9c-0.9,0-1.7-0.2-2.6-0.4c-0.8-0.3-1.5-0.7-2-1.2c-0.6-0.6-1-1.1-1.3-2c-0.3-0.7-0.4-1.6-0.4-2.4
		l0,0c0-0.8,0.2-1.6,0.4-2.4c0.3-0.7,0.8-1.5,1.3-2c0.6-0.6,1.2-1,2-1.3c0.7-0.3,1.6-0.4,2.6-0.4s1.7,0.2,2.6,0.4
		c0.8,0.2,1.5,0.7,2,1.2c0.6,0.6,1,1.1,1.3,2c0.3,0.7,0.4,1.6,0.4,2.4l0,0c0,0.8-0.2,1.6-0.4,2.4c-0.3,0.7-0.8,1.5-1.3,2
		c-0.6,0.6-1.2,1-2,1.3C150.6,184.8,149.6,184.9,148.7,184.9z M148.7,181.9c0.4,0,0.9-0.1,1.2-0.2c0.3-0.2,0.7-0.3,1-0.7
		c0.2-0.2,0.4-0.7,0.7-1c0.2-0.3,0.2-0.8,0.2-1.1l0,0c0-0.4-0.1-0.8-0.2-1.1c-0.2-0.3-0.3-0.7-0.7-1c-0.2-0.2-0.7-0.6-1-0.7
		c-0.3-0.2-0.8-0.2-1.2-0.2s-0.9,0.1-1.2,0.2c-0.3,0.2-0.7,0.3-1,0.7c-0.2,0.2-0.4,0.7-0.7,1s-0.2,0.8-0.2,1.1l0,0
		c0,0.4,0.1,0.8,0.2,1.1c0.2,0.3,0.3,0.7,0.7,1c0.2,0.2,0.6,0.6,1,0.7C147.9,181.9,148.3,181.9,148.7,181.9z"/>
	<path class="st1" d="M156.9,172.8h5c0.7,0,1.5,0.1,2,0.2c0.7,0.2,1.1,0.4,1.6,0.8c0.4,0.3,0.7,0.8,1,1.3c0.2,0.6,0.3,1.1,0.3,1.7
		l0,0c0,0.7-0.1,1.3-0.3,1.8c-0.2,0.6-0.7,1-1.1,1.3c-0.4,0.3-1,0.7-1.6,0.8c-0.7,0.2-1.2,0.2-2,0.2h-1.6v3.4H157v-11.5H156.9z
		 M161.6,178.8c0.6,0,1.1-0.2,1.3-0.4c0.3-0.2,0.6-0.7,0.6-1.1l0,0c0-0.6-0.2-0.9-0.6-1.1c-0.3-0.2-0.8-0.3-1.3-0.3H160v3.1h1.6
		V178.8z"/>
</g>
<path class="st1" d="M84.9,148.7L84.9,148.7c0-1.8,1.2-3.1,3.1-3.1c1.1,0,1.9,0.3,2.4,0.9l-0.9,1c-0.3-0.3-0.9-0.7-1.5-0.7
	c-1,0-1.8,0.9-1.8,1.9l0,0c0,1,0.8,1.9,1.8,1.9c0.8,0,1.1-0.2,1.7-0.8l0.9,0.9c-0.7,0.7-1.3,1.1-2.5,1.1
	C86.3,151.8,84.9,150.4,84.9,148.7z"/>
<path class="st1" d="M91.5,145.6h1.3v4.9h3v1.2h-4.4C91.5,151.8,91.5,145.6,91.5,145.6z"/>
<path class="st1" d="M99.1,145.5h1.2l2.7,6.2h-1.3l-0.4-1.3h-2.7l-0.6,1.3h-1.3L99.1,145.5z M100.5,149.2l-0.8-2l-0.8,2H100.5z"/>
<path class="st1" d="M103.8,145.6h2.8c0.8,0,1.3,0.2,1.8,0.7c0.3,0.3,0.4,0.9,0.4,1.3l0,0c0,1-0.4,1.7-1.2,1.9l1.5,2.1h-1.5l-1.2-2
	l0,0h-1v2h-1.3v-6C104.1,145.6,103.8,145.6,103.8,145.6z M106.5,148.5c0.7,0,1-0.3,1-0.9l0,0c0-0.7-0.3-0.9-1-0.9h-1.3v1.8
	C105.2,148.5,106.5,148.5,106.5,148.5z"/>
<path class="st1" d="M110.2,145.6h4.7v1.2h-3.2v1.3h2.9v1.2h-2.9v1.2h3.2v1.2h-4.7V145.6z"/>
<path class="st1" d="M116,145.6h1.2l2.9,3.8v-3.8h1.3v6.2h-1.1l-3-3.9v3.9H116V145.6z"/>
<path class="st1" d="M122.6,148.7L122.6,148.7c0-1.8,1.2-3.1,3.1-3.1c1.1,0,1.9,0.3,2.4,0.9l-0.9,1c-0.4-0.3-1-0.7-1.5-0.7
	c-1,0-1.8,0.9-1.8,1.9l0,0c0,1,0.8,1.9,1.8,1.9c0.8,0,1.1-0.2,1.7-0.8l0.9,0.9c-0.7,0.7-1.3,1.1-2.5,1.1
	C124,151.8,122.6,150.4,122.6,148.7z"/>
<path class="st1" d="M129.2,145.6h4.7v1.2h-3.2v1.3h2.9v1.2h-2.9v1.2h3.2v1.2h-4.7C129.2,151.9,129.2,145.6,129.2,145.6z"/>
<path class="st1" d="M137.9,145.6h1.3v2.7l2.5-2.7h1.7l-2.5,2.7l2.7,3.5h-1.7l-1.9-2.7l-0.8,0.8v1.9h-1.3V145.6z"/>
<path class="st1" d="M144.1,145.6h4.7v1.2h-3.2v1.3h2.9v1.2h-2.9v1.2h3.2v1.2h-4.7V145.6z"/>
<path class="st1" d="M150.1,145.6h1.3v4.9h3v1.2h-4.4V145.6z"/>
<path class="st1" d="M155.4,145.6h2.9c0.8,0,1.2,0.2,1.7,0.4c0.2,0.2,0.3,0.7,0.3,1l0,0c0,0.7-0.3,1.1-0.8,1.2
	c0.8,0.2,1.1,0.7,1.1,1.5l0,0c0,1.1-0.9,1.7-2.2,1.7h-2.9v-5.9h-0.1V145.6z M158,148c0.7,0,1-0.2,1-0.7l0,0c0-0.3-0.2-0.7-0.9-0.7
	h-1.3v1.2h1.2V148z M158.3,150.6c0.7,0,1-0.2,1-0.7l0,0c0-0.3-0.2-0.7-1-0.7h-1.5v1.2h1.5V150.6z"/>
<path class="st1" d="M163.2,149.3l-2.4-3.7h1.5l1.5,2.4l1.5-2.4h1.5l-2.4,3.7v2.4h-1.3v-2.4H163.2z"/>
<path class="st1" d="M145.3-24.7h1.1v1.9h2v-1.9h1.1v4.9h-1.1v-2h-2v1.9h-1.1V-24.7z"/>
<path class="st1" d="M150.6-24.7h3.7v1h-2.6v1h2.3v1h-2.3v1h2.6v1h-3.7V-24.7z"/>
<path class="st1" d="M156.9-24.8h1l2.1,4.9h-1.1l-0.4-1.1h-2.1l-0.4,1.1h-1.1L156.9-24.8z M158-21.9l-0.6-1.6l-0.6,1.6H158z"/>
<path class="st1" d="M161.2-23.7h-1.5v-1h4v1h-1.5v3.9h-1.1v-3.9H161.2z"/>
<path class="st1" d="M164.6-24.7h1.1v1.9h2v-1.9h1.1v4.9h-1.1v-2h-2v1.9h-1.1V-24.7z"/>
<g>
	<path class="st1" d="M1.3,188.2H5v0.9H2.3v1h2.2v0.9H2.3v2h-1V188.2z"/>
	<path class="st1" d="M5.6,190.5L5.6,190.5c0-1.3,1.1-2.5,2.6-2.5s2.6,1.1,2.6,2.5l0,0c0,1.3-1.1,2.5-2.6,2.5S5.6,192,5.6,190.5z
		 M9.7,190.5L9.7,190.5c0-0.8-0.7-1.6-1.5-1.6s-1.5,0.7-1.5,1.6l0,0c0,0.8,0.7,1.6,1.5,1.6S9.7,191.5,9.7,190.5z"/>
	<path class="st1" d="M11.8,188.2H14c0.7,0,1.1,0.2,1.5,0.6s0.4,0.7,0.4,1.1l0,0c0,0.8-0.4,1.2-1,1.6l1.1,1.8h-1.2l-1-1.6l0,0h-0.8
		v1.6h-1.1V188.2z M13.8,190.5c0.6,0,0.8-0.3,0.8-0.7l0,0c0-0.4-0.3-0.7-0.8-0.7h-1v1.5h1V190.5z"/>
	<path class="st1" d="M18.9,188.2h2.2c0.6,0,1,0.1,1.2,0.4c0.2,0.2,0.3,0.6,0.3,0.8l0,0c0,0.6-0.3,0.8-0.7,1
		c0.6,0.2,0.9,0.6,0.9,1.2l0,0c0,0.9-0.7,1.3-1.9,1.3h-2.2v-4.8H18.9z M20.9,190.2c0.6,0,0.7-0.1,0.7-0.6l0,0c0-0.3-0.2-0.6-0.7-0.6
		h-1v1h1V190.2z M21.2,192.1c0.6,0,0.7-0.2,0.7-0.6l0,0c0-0.3-0.2-0.6-0.8-0.6h-1.2v1h1.3V192.1z"/>
	<path class="st1" d="M23.9,188.2h1v4.9h-1V188.2z"/>
	<path class="st1" d="M25.9,192.3l0.7-0.7c0.4,0.3,0.9,0.7,1.5,0.7c0.4,0,0.7-0.2,0.7-0.4l0,0c0-0.3-0.2-0.4-0.9-0.7
		c-0.9-0.2-1.7-0.6-1.7-1.5l0,0c0-0.9,0.7-1.5,1.7-1.5c0.7,0,1.3,0.2,1.8,0.7l-0.4,0.7c-0.4-0.3-0.8-0.6-1.2-0.6
		c-0.4,0-0.7,0.2-0.7,0.4l0,0c0,0.3,0.2,0.4,1,0.7c1,0.2,1.6,0.7,1.6,1.5l0,0c0,0.9-0.7,1.6-1.8,1.6
		C27.3,193.1,26.5,192.9,25.9,192.3z"/>
	<path class="st1" d="M30.6,188.2h1v2h2v-2h1v4.9h-1v-2h-2v2h-1V188.2z"/>
	<path class="st1" d="M35.8,190.5L35.8,190.5c0-1.3,1.1-2.5,2.6-2.5s2.6,1.1,2.6,2.5l0,0c0,1.3-1.1,2.5-2.6,2.5
		C36.9,193.1,35.8,192,35.8,190.5z M39.8,190.5L39.8,190.5c0-0.8-0.7-1.6-1.5-1.6c-0.8,0-1.5,0.7-1.5,1.6l0,0c0,0.8,0.7,1.6,1.5,1.6
		C39.2,192.1,39.8,191.5,39.8,190.5z"/>
	<path class="st1" d="M41.9,188.2h2c1.1,0,1.9,0.7,1.9,1.7l0,0c0,1.1-0.8,1.8-2,1.8h-0.8v1.5h-1v-4.9H41.9z M43.8,190.6
		c0.6,0,0.8-0.3,0.8-0.7l0,0c0-0.6-0.3-0.7-0.8-0.7h-0.8v1.5h0.8V190.6z"/>
	<path class="st1" d="M48.8,188.2h1v4.9h-1V188.2z"/>
	<path class="st1" d="M51,188.2h1l2.2,3v-3h1v4.9h-0.9L52,190v3.1h-1V188.2z"/>
	<path class="st1" d="M59.7,189.1h-1.5v-1h4v1h-1.5v3.9h-1L59.7,189.1L59.7,189.1z"/>
	<path class="st1" d="M63.2,188.2h1v2h2v-2h1v4.9h-1v-2h-2v2h-1V188.2z"/>
	<path class="st1" d="M68.5,188.2H72v0.9h-2.6v1h2.2v0.9h-2.2v1h2.7v0.9h-3.7C68.5,192.9,68.5,188.2,68.5,188.2z"/>
	<path class="st1" d="M75,190.5L75,190.5c0-1.3,1-2.5,2.6-2.5c0.9,0,1.5,0.3,2,0.7l-0.7,0.9c-0.4-0.3-0.7-0.6-1.2-0.6
		c-0.8,0-1.5,0.7-1.5,1.6l0,0c0,0.8,0.7,1.6,1.5,1.6c0.6,0,0.9-0.2,1.2-0.7l0.7,0.7c-0.6,0.6-1,0.8-2,0.8
		C76.1,193.1,75,192,75,190.5z"/>
	<path class="st1" d="M80.3,188.2h1v2h2v-2h1v4.9h-1v-2h-2v2h-1V188.2z"/>
	<path class="st1" d="M85.7,188.2h2.1c0.7,0,1.1,0.2,1.5,0.6c0.3,0.3,0.4,0.7,0.4,1.1l0,0c0,0.8-0.4,1.2-1,1.6l1.1,1.8h-1.2l-1-1.6
		l0,0h-0.8v1.6h-1.1V188.2z M87.7,190.5c0.6,0,0.8-0.3,0.8-0.7l0,0c0-0.4-0.3-0.7-0.8-0.7h-1v1.5h1V190.5z"/>
	<path class="st1" d="M90.7,188.2h1v4.9h-1V188.2z"/>
	<path class="st1" d="M92.6,192.3l0.7-0.7c0.4,0.3,0.9,0.7,1.5,0.7c0.4,0,0.7-0.2,0.7-0.4l0,0c0-0.3-0.2-0.4-0.9-0.7
		c-0.9-0.2-1.7-0.6-1.7-1.5l0,0c0-0.9,0.7-1.5,1.7-1.5c0.7,0,1.3,0.2,1.8,0.7l-0.6,0.7c-0.4-0.3-0.8-0.6-1.2-0.6
		c-0.4,0-0.7,0.2-0.7,0.4l0,0c0,0.3,0.2,0.4,1,0.7c1,0.2,1.6,0.7,1.6,1.5l0,0c0,0.9-0.7,1.6-1.8,1.6C94,193.1,93.2,192.9,92.6,192.3
		z"/>
	<path class="st1" d="M98.6,189.1h-1.5v-1h4v1h-1.6v3.9h-1C98.6,193,98.6,189.1,98.6,189.1z"/>
	<path class="st1" d="M101.9,188.2h1v4.9h-1V188.2z"/>
	<path class="st1" d="M106,188.1h1l2.1,4.9H108l-0.4-1.1h-2.1L105,193h-1.1L106,188.1z M107.1,191l-0.7-1.6l-0.7,1.6H107.1z"/>
	<path class="st1" d="M109.8,188.2h1l2.2,3v-3h1v4.9h-0.9l-2.4-3.1v3.1h-1C109.8,193.1,109.8,188.2,109.8,188.2z"/>
	<path class="st1" d="M117.4,188.2h1.1l1.2,2.1l1.2-2.1h1.1v4.9h-1v-3.2l-1.3,2.1l0,0l-1.3-2.1v3.1h-1V188.2L117.4,188.2z"/>
	<path class="st1" d="M123.3,188.2h3.6v0.9h-2.5v1h2.2v0.9h-2.2v1h2.7v0.9h-3.7L123.3,188.2L123.3,188.2z"/>
	<path class="st1" d="M129.1,189.1h-1.5v-1h4v1h-1.5v3.9h-1L129.1,189.1L129.1,189.1z"/>
	<path class="st1" d="M132.6,188.2h1v2h2v-2h1v4.9h-1v-2h-2v2h-1V188.2z"/>
	<path class="st1" d="M137.6,190.5L137.6,190.5c0-1.3,1.1-2.5,2.6-2.5s2.6,1.1,2.6,2.5l0,0c0,1.3-1.1,2.5-2.6,2.5
		C138.8,193.1,137.6,192,137.6,190.5z M141.7,190.5L141.7,190.5c0-0.8-0.7-1.6-1.5-1.6c-0.8,0-1.5,0.7-1.5,1.6l0,0
		c0,0.8,0.7,1.6,1.5,1.6C141.1,192.1,141.7,191.5,141.7,190.5z"/>
	<path class="st1" d="M143.8,188.2h1.9c1.6,0,2.6,1,2.6,2.4l0,0c0,1.3-1,2.4-2.6,2.4h-1.9V188.2z M145.7,192c0.8,0,1.5-0.7,1.5-1.5
		l0,0c0-0.8-0.7-1.5-1.5-1.5h-0.8v2.9C144.8,192,145.7,192,145.7,192z"/>
	<path class="st1" d="M149.3,188.2h1v4.9h-1V188.2z"/>
	<path class="st1" d="M151.3,192.3l0.7-0.7c0.4,0.3,0.9,0.7,1.5,0.7c0.4,0,0.7-0.2,0.7-0.4l0,0c0-0.3-0.2-0.4-0.9-0.7
		c-0.9-0.2-1.7-0.6-1.7-1.5l0,0c0-0.9,0.7-1.5,1.7-1.5c0.7,0,1.3,0.2,1.8,0.7l-0.6,0.8c-0.4-0.3-0.8-0.6-1.2-0.6
		c-0.4,0-0.7,0.2-0.7,0.4l0,0c0,0.3,0.2,0.4,1,0.7c1,0.2,1.6,0.7,1.6,1.5l0,0c0,0.9-0.7,1.6-1.8,1.6
		C152.6,193.1,151.7,192.9,151.3,192.3z"/>
	<path class="st1" d="M157.1,189.1h-1.5v-1h4v1h-1.5v3.9h-1L157.1,189.1L157.1,189.1z"/>
	<path class="st1" d="M162.6,188.2h3.6v0.9h-2.6v1h2.2v0.9h-2.2v1h2.7v0.9h-3.7L162.6,188.2L162.6,188.2z"/>
	<path class="st1" d="M167.3,188.2h2c1.1,0,1.9,0.7,1.9,1.7l0,0c0,1.1-0.8,1.8-2,1.8h-0.8v1.5h-1v-4.9H167.3z M169.1,190.6
		c0.6,0,0.8-0.3,0.8-0.7l0,0c0-0.6-0.3-0.7-0.8-0.7h-0.8v1.5h0.8V190.6z"/>
	<path class="st1" d="M171.9,188.2h1v4.9h-1V188.2z"/>
	<path class="st1" d="M173.9,192.3l0.7-0.7c0.4,0.3,0.9,0.7,1.5,0.7c0.4,0,0.7-0.2,0.7-0.4l0,0c0-0.3-0.2-0.4-0.9-0.7
		c-0.9-0.2-1.7-0.6-1.7-1.5l0,0c0-0.9,0.7-1.5,1.7-1.5c0.7,0,1.3,0.2,1.8,0.7l-0.6,0.8c-0.4-0.3-0.8-0.6-1.2-0.6
		c-0.4,0-0.7,0.2-0.7,0.4l0,0c0,0.3,0.2,0.4,1,0.7c1,0.2,1.6,0.7,1.6,1.5l0,0c0,0.9-0.7,1.6-1.8,1.6
		C175.2,193.1,174.5,192.9,173.9,192.3z"/>
	<path class="st1" d="M178.5,190.5L178.5,190.5c0-1.3,1-2.5,2.6-2.5c0.9,0,1.5,0.3,2,0.7l-0.7,0.8c-0.4-0.3-0.7-0.6-1.2-0.6
		c-0.8,0-1.5,0.7-1.5,1.6l0,0c0,0.8,0.7,1.6,1.5,1.6c0.6,0,0.9-0.2,1.2-0.7l0.7,0.7c-0.6,0.6-1,0.8-2,0.8
		C179.5,193.1,178.5,192,178.5,190.5z"/>
	<path class="st1" d="M183.4,190.5L183.4,190.5c0-1.3,1.1-2.5,2.6-2.5s2.6,1.1,2.6,2.5l0,0c0,1.3-1.1,2.5-2.6,2.5
		C184.5,193.1,183.4,192,183.4,190.5z M187.4,190.5L187.4,190.5c0-0.8-0.7-1.6-1.5-1.6c-0.8,0-1.5,0.7-1.5,1.6l0,0
		c0,0.8,0.7,1.6,1.5,1.6C186.9,192.1,187.4,191.5,187.4,190.5z"/>
	<path class="st1" d="M189.6,188.2h2c1.1,0,1.9,0.7,1.9,1.7l0,0c0,1.1-0.8,1.8-2,1.8h-0.8v1.5h-1v-4.9H189.6z M191.5,190.6
		c0.6,0,0.8-0.3,0.8-0.7l0,0c0-0.6-0.3-0.7-0.8-0.7h-0.8v1.5h0.8V190.6z"/>
	<path class="st1" d="M195.5,188.1h1l2.1,4.9h-1.1l-0.4-1.1h-2.1l-0.4,1.1h-1.1L195.5,188.1z M196.6,191l-0.7-1.6l-0.7,1.6H196.6z"
		/>
	<path class="st1" d="M199.3,188.2h1v3.9h2.4v0.9h-3.6L199.3,188.2L199.3,188.2z"/>
	<path class="st1" d="M205.5,190.5L205.5,190.5c0-1.3,1-2.5,2.6-2.5c0.9,0,1.5,0.3,2,0.7l-0.7,0.8c-0.4-0.3-0.7-0.6-1.2-0.6
		c-0.8,0-1.5,0.7-1.5,1.6l0,0c0,0.8,0.7,1.6,1.5,1.6c0.6,0,0.9-0.2,1.2-0.7l0.7,0.7c-0.6,0.6-1,0.8-2,0.8
		C206.5,193.1,205.5,192,205.5,190.5z"/>
	<path class="st1" d="M210.8,188.2h1v2h2v-2h1v4.9h-1v-2h-2v2h-1V188.2z"/>
	<path class="st1" d="M216,191v-2.8h1v2.8c0,0.8,0.4,1.2,1,1.2c0.7,0,1-0.4,1-1.1v-2.8h1v2.8c0,1.5-0.8,2.1-2.1,2.1
		C216.9,193.1,216,192.3,216,191z"/>
	<path class="st1" d="M221.4,188.2h2.1c0.7,0,1.1,0.2,1.5,0.6s0.4,0.7,0.4,1.1l0,0c0,0.8-0.4,1.2-1,1.6l1.1,1.8h-1.2l-1-1.6l0,0
		h-0.8v1.6h-1v-5H221.4z M223.5,190.5c0.6,0,0.8-0.3,0.8-0.7l0,0c0-0.4-0.3-0.7-0.8-0.7h-1v1.5h1V190.5z"/>
	<path class="st1" d="M226.2,190.5L226.2,190.5c0-1.3,1-2.5,2.6-2.5c0.9,0,1.5,0.3,2,0.7l-0.7,0.8c-0.4-0.3-0.7-0.6-1.2-0.6
		c-0.8,0-1.5,0.7-1.5,1.6l0,0c0,0.8,0.7,1.6,1.5,1.6c0.6,0,0.9-0.2,1.2-0.7l0.7,0.7c-0.6,0.6-1,0.8-2,0.8
		C227.2,193.1,226.2,192,226.2,190.5z"/>
	<path class="st1" d="M231.5,188.2h1v2h2v-2h1v4.9h-1v-2h-2v2h-1V188.2z"/>
</g>
<path class="st0" d="M171.1,176.3l14.4-11c1.8-1.3,3-2.6,3.8-3.6c0.8-1,1.1-2.1,1.1-3.4s-0.4-2.1-1.2-2.9c-0.8-0.7-1.8-1-3.1-1
	c-1.2,0-2.5,0.4-3.7,1.2c-1.1,0.8-2.5,2-4,3.8l-7.2-6c1-1.3,2-2.5,3.1-3.5c1-1,2.2-1.9,3.5-2.6c1.2-0.7,2.6-1.2,4-1.6s3.1-0.6,5-0.6
	c2.1,0,4,0.3,5.7,0.9c1.8,0.6,3.2,1.5,4.5,2.5s2.2,2.4,2.9,3.9s1,3.1,1,4.9v0.1c0,1.6-0.2,2.9-0.6,4.1s-1,2.4-1.8,3.4
	c-0.8,1-1.7,2-2.8,3c-1.1,1-2.4,1.9-3.8,3l-6.6,4.6h15.9v8.7h-30.4v-8.2H171.1z"/>
<path class="st0" d="M205.5,176.3l14.4-11c1.8-1.3,3-2.6,3.8-3.6s1.1-2.1,1.1-3.4s-0.4-2.1-1.2-2.9c-0.8-0.7-1.8-1-3.1-1
	s-2.5,0.4-3.7,1.2c-1.1,0.8-2.5,2-4,3.8l-7.2-6c1-1.3,2-2.5,3.1-3.5c1-1,2.2-1.9,3.5-2.6c1.2-0.7,2.6-1.2,4-1.6s3.1-0.6,5-0.6
	c2.1,0,4,0.3,5.7,0.9c1.8,0.6,3.2,1.5,4.5,2.5s2.2,2.4,2.9,3.9s1,3.1,1,4.9v0.1c0,1.6-0.2,2.9-0.6,4.1s-1,2.4-1.8,3.4
	c-0.8,1-1.7,2-2.8,3c-1.1,1-2.4,1.9-3.8,3l-6.6,4.6h15.9v8.7h-30.4v-8.2H205.5z"/>
<g>
	<rect x="1.6" y="1.8" class="st1" width="235.3" height="64.2"/>
	<path class="st2" d="M238.3,67.8H0.1V0h238.2V67.8z M3,64.2h232.3V3.6H3V64.2z"/>
</g>
</svg>
