<?xml version="1.0" encoding="utf-8"?>
<!-- Generator: Adobe Illustrator 24.2.3, SVG Export Plug-In . SVG Version: 6.00 Build 0)  -->
<svg version="1.1" id="Layer_1" xmlns="http://www.w3.org/2000/svg" xmlns:xlink="http://www.w3.org/1999/xlink" x="0px" y="0px"
	 viewBox="0 0 300 96.4" style="enable-background:new 0 0 300 96.4;" xml:space="preserve">
<style type="text/css">
	.st0{fill:#D8B134;}
</style>
<g>
	<path d="M25.1,41.4c-0.4,1.5-1.3,3.8-1.7,4.8C22.5,46.5,20,47,17.6,47C9.9,47,6.1,41.9,6.1,36.5c0-6.5,4.9-10.9,12.1-10.9
		c2.7,0,5,0.6,6,0.7c0.1,1.4,0.4,3.4,0.6,4.9l-1,0.2c-0.6-2.2-1.4-3.4-3-4.1c-0.8-0.4-2.1-0.6-3.2-0.6c-5.1,0-7.8,3.8-7.8,9
		c0,6,3.1,10,8.1,10c3.1,0,4.7-1.5,6.4-4.7L25.1,41.4z"/>
	<path d="M28.1,26h8.6V27c-2.4,0.2-2.9,0.4-2.9,3.2v5.4c0.6-0.1,1.4-0.6,2.3-1.5c1.8-1.8,3.8-3.8,5.2-5.4c0.9-1.1,0.8-1.5-0.6-1.7
		L39.9,27V26h7.8V27c-2.3,0.3-3.2,0.4-5.3,2.6c-1,1-3.3,3.2-5.2,5.1c2.3,2.8,5.6,6.8,7.4,8.7c1.5,1.7,1.9,1.9,3.8,2.2v0.9h-5.3
		c-2.2-2.6-4.8-5.8-7.6-9.1c-0.7-0.9-1.2-1-1.8-0.9v5.9c0,2.7,0.3,2.9,2.9,3.2v0.9h-8.6v-0.9c2.5-0.2,2.8-0.4,2.8-3.2V30.2
		c0-2.8-0.2-3-2.8-3.2V26z"/>
	<path d="M72,27c-2.6,0.3-2.8,0.4-2.8,3.1v12.6c0,2.6,0.3,2.8,2.8,3v0.9h-8.7v-0.9c2.6-0.3,2.8-0.4,2.8-3v-6.2H55.8v6.2
		c0,2.6,0.3,2.7,2.8,3v0.9h-8.7v-0.9c2.5-0.3,2.8-0.4,2.8-3V30c0-2.6-0.3-2.8-2.8-3.1V26h8.7V27c-2.5,0.2-2.8,0.4-2.8,3.1V35h10.4
		V30c0-2.6-0.3-2.8-2.8-3.1V26H72V27z"/>
	<path d="M85.2,43.8c-2,2.6-4.3,3.1-5.3,3.1c-3.9,0-6.3-3.2-6.3-6.8c0-2.2,0.8-4.2,2.1-5.6c1.3-1.5,3.1-2.3,4.7-2.3
		c2.8,0,4.9,2.4,4.9,4.9c0,0.6-0.1,0.9-0.6,1.1c-0.6,0.1-4.7,0.4-8.4,0.5c-0.1,4.1,2.4,5.8,4.6,5.8c1.3,0,2.5-0.5,3.6-1.6L85.2,43.8
		z M79.7,33.5c-1.4,0-2.8,1.4-3.2,3.9c1.7,0,3.3,0,5.1-0.1c0.5,0,0.7-0.1,0.7-0.6C82.4,35.1,81.4,33.5,79.7,33.5z"/>
	<path d="M97.5,46.9c-0.5,0-1.2-0.3-1.6-0.6c-0.4-0.4-0.6-0.8-0.8-1.4c-1.3,0.8-2.8,2-3.7,2c-2.3,0-3.9-1.9-3.9-3.9
		c0-1.6,0.8-2.5,2.6-3.1c1.9-0.7,4.3-1.5,5-2.1v-0.8c0-2.1-1-3.4-2.6-3.4c-0.7,0-1.1,0.3-1.4,0.7c-0.4,0.5-0.6,1.1-0.8,2.1
		c-0.2,0.6-0.5,0.8-1,0.8c-0.6,0-1.5-0.7-1.5-1.4c0-0.5,0.4-0.8,1.1-1.3c1-0.7,2.8-1.8,4.6-2.2c1,0,2,0.3,2.8,0.9
		c1.2,0.9,1.6,2.1,1.6,3.7v6c0,1.5,0.5,1.9,1.1,1.9c0.4,0,0.8-0.1,1.1-0.3l0.3,0.9L97.5,46.9z M95.1,39c-0.7,0.3-2,0.9-2.7,1.3
		c-1.2,0.5-1.9,1.1-1.9,2.3c0,1.7,1.3,2.4,2.2,2.4c0.8,0,1.8-0.4,2.4-1C95.1,42.4,95.1,40.4,95.1,39z"/>
	<path d="M107.6,46.5c-0.5,0.3-1,0.4-1.3,0.4c-2.1,0-3.2-1.2-3.2-3.8V34h-2.1l-0.1-0.4l0.9-1h1.4V30c0.7-0.7,1.7-1.5,2.4-2.2
		l0.5,0.1c-0.1,1.2-0.1,3-0.1,4.7h3.5c0.3,0.3,0.2,1.1-0.2,1.3h-3.3v8c0,2.5,1,3,1.8,3c0.7,0,1.4-0.2,1.9-0.5l0.3,0.9L107.6,46.5z"
		/>
	<path d="M119.7,46.6v-0.9c1.8-0.2,2-0.4,2-2.4V38c0-2.6-1-3.8-3-3.8c-1.1,0-2.3,0.5-3.2,1.5v7.5c0,2,0.2,2.2,2,2.4v0.9h-7v-0.9
		c1.8-0.2,2.2-0.3,2.2-2.4V28.1c0-1.6-0.1-2-2.2-2.2V25c1.8-0.2,3.7-0.6,4.9-1.1c0,1.2,0,2.6,0,3.9v6.7c1.1-1.1,2.8-2.3,4.5-2.3
		c2.6,0,4.4,1.6,4.4,5.4v5.6c0,2.1,0.2,2.2,2,2.4v0.9H119.7z"/>
	<path d="M138.9,40.9v2.3c0,2,0.1,2.2,2.4,2.4v0.9h-7.7v-0.9c2.3-0.2,2.5-0.4,2.5-2.5v-2.3h-8.3v-1c3.1-4.3,6.4-9,9.5-13.2h1.6v12.7
		h3.1v1.6H138.9z M136.2,30.1c-1.9,2.8-4.1,5.9-6.3,9.2h6.3V30.1z"/>
	<path d="M155.1,35.4c3.1,0.5,5.5,2,5.5,5c0,2.1-1.2,3.8-3.1,4.9c-1.6,0.9-3.3,1.2-5.6,1.2h-8v-0.9c2.6-0.3,2.8-0.5,2.8-3V30
		c0-2.6-0.3-2.9-2.8-3.1V26h8.5c2.4,0,3.9,0.4,4.9,1.1c1.1,0.8,1.9,1.9,1.9,3.5C159.4,33.6,156.9,35,155.1,35.4z M151.4,35
		c3.4,0,4.8-1.4,4.8-3.9c0-2.3-1.4-3.9-4.2-3.9c-0.9,0-1.4,0.1-1.7,0.3c-0.3,0.2-0.3,0.5-0.3,1.5v6H151.4z M149.9,42.5
		c0,2.3,0.6,2.9,2.8,2.9c2.3,0,4.6-1.4,4.6-4.6c0-3.2-2.1-4.6-5.9-4.6h-1.4V42.5z"/>
	<path d="M163,46.6v-0.9c1.9-0.2,2.2-0.3,2.2-2.5v-6.4c0-2-0.1-2.1-1.9-2.4v-0.8c1.7-0.3,3.3-0.7,4.7-1.2c0,1.3,0,2.6,0,4v6.9
		c0,2.1,0.2,2.3,2.2,2.5v0.9H163z M166.4,29.4c-0.9,0-1.8-0.8-1.8-1.8c0-1.1,0.8-1.8,1.8-1.8c1,0,1.7,0.8,1.7,1.8
		C168.1,28.5,167.3,29.4,166.4,29.4z"/>
	<path d="M179.9,36.5c-0.6-1.9-1.5-3.1-3.3-3.1c-1.1,0-1.9,0.8-1.9,2c0,1.3,0.9,1.9,2.6,2.7c2.7,1.3,4.1,2.2,4.1,4.4
		c0,2.9-2.7,4.4-5.3,4.4c-1.6,0-3.1-0.5-3.8-0.9c-0.2-0.9-0.4-2.7-0.6-3.7l0.9-0.2c0.6,2,1.7,3.7,3.9,3.7c1.2,0,2.1-0.8,2.1-2.1
		c0-1.3-0.8-2.1-2.5-2.9c-2.2-1.1-4-2.1-4-4.4c0-2.3,2-4.1,5-4.1c1.4,0,2.4,0.3,3.1,0.4c0.1,0.8,0.3,2.8,0.5,3.5L179.9,36.5z"/>
	<path d="M192.1,46.6v-0.9c1.8-0.2,2-0.4,2-2.4V38c0-2.6-1-3.8-3-3.8c-1.1,0-2.3,0.5-3.2,1.5v7.5c0,2,0.2,2.2,2,2.4v0.9h-7v-0.9
		c1.8-0.2,2.2-0.3,2.2-2.4V28.1c0-1.6-0.1-2-2.2-2.2V25c1.8-0.2,3.7-0.6,4.9-1.1c0,1.2,0,2.6,0,3.9v6.7c1.1-1.1,2.8-2.3,4.5-2.3
		c2.6,0,4.4,1.6,4.4,5.4v5.6c0,2.1,0.2,2.2,2,2.4v0.9H192.1z"/>
	<path d="M207.9,32.3c4,0,6.9,3.1,6.9,7.1c0,5.1-3.8,7.6-7,7.6c-4.4,0-7.1-3.5-7.1-7.1C200.8,34.8,204.8,32.3,207.9,32.3z
		 M207.5,33.4c-1.8,0-3.5,1.8-3.5,5.5c0,4,1.7,6.9,4.2,6.9c1.8,0,3.4-1.3,3.4-5.7C211.6,36.3,210.1,33.4,207.5,33.4z"/>
	<path d="M216.8,33.4c1.5-0.2,3.2-0.8,4.8-1.4c0,0.7,0,1.7,0,2.5c0.1-0.1,2.5-1.5,2.7-1.5c0.8-0.4,1.4-0.6,1.9-0.6
		c3.5,0,5.6,3,5.6,6.1c0,4.8-3.8,7.8-7.9,8.6c-0.9,0-1.7-0.3-2.2-0.5v4.2c0,2.2,0.2,2.4,2.6,2.7v0.9h-7.7v-0.9
		c2-0.2,2.3-0.4,2.3-2.4V36.5c0-1.9-0.1-2-2-2.3V33.4z M221.6,44.2c0.7,0.7,1.9,1.2,2.9,1.2c2.6,0,4.2-2.3,4.2-5.8
		c0-3.5-2-5.3-4.1-5.3c-1,0-2.3,0.7-3,1.2V44.2z"/>
</g>
<g>
	<path class="st0" d="M233.2,6.6c-3.6,1.4-6.4,3.5-6.4,6.3c0,2,1.4,2.6,3.4,3.5c0.8,0.3,1,1.2,0.9,1.9c-0.1,2-1.8,3.3-3.7,3.3
		c-2.8,0-5.3-2.5-5.3-6.5c0.1-5.7,5.7-9.2,10.3-10.4L233.2,6.6z"/>
	<path class="st0" d="M241.4,14.1c2.6-2.4,5.8-3.8,9.5-3.8c6.8,0,11.2,4.7,11.2,11.2c0,7.2-4.8,11.9-13.4,19.2l-9.9,8.6h12.4
		c3.9,0,4.9-0.4,8.4-5.5l1.8,0.8c-1.5,3.1-3.3,7.1-4.5,10h-26.5l0.2-1.6c15.7-13.7,24.9-21.4,24.9-30.5c0-4.2-2.1-7.4-7.2-7.4
		c-4.5,0-7.7,3.5-9.8,6.2l-1.6-1.5L241.4,14.1z"/>
	<path class="st0" d="M275.1,14.1c2.6-2.4,5.8-3.8,9.5-3.8c6.8,0,11.2,4.7,11.2,11.2c0,7.2-4.8,11.9-13.4,19.2l-9.9,8.6h12.4
		c3.9,0,4.9-0.4,8.4-5.5l1.8,0.8c-1.5,3.1-3.3,7.1-4.5,10h-26.5l0.2-1.6c15.7-13.7,24.9-21.4,24.9-30.5c0-4.2-2.1-7.4-7.2-7.4
		c-4.5,0-7.7,3.5-9.8,6.2l-1.6-1.5L275.1,14.1z"/>
</g>
<g>
	<path d="M18.7,14.6c-0.3,0.9-0.7,2.2-1,2.7c-0.5,0.1-1.9,0.4-3.3,0.4c-4.3,0-6.5-2.9-6.5-6c0-3.7,2.8-6.2,6.8-6.2
		c1.5,0,2.8,0.3,3.4,0.4c0.1,0.8,0.2,1.9,0.3,2.8l-0.6,0.1c-0.4-1.2-0.8-1.9-1.7-2.3c-0.5-0.2-1.2-0.3-1.9-0.3c-3,0-4.5,2.2-4.5,5.2
		c0,3.5,1.8,5.7,4.7,5.7c1.8,0,2.7-0.8,3.7-2.6L18.7,14.6z"/>
	<path d="M19.9,17.5V17c1.2-0.1,1.3-0.2,1.3-1.4V7c0-1.1-0.1-1.2-1.2-1.4V5.1c1-0.1,2.1-0.4,2.7-0.6c0,0.8,0,1.7,0,2.6v8.5
		c0,1.2,0.1,1.3,1.3,1.4v0.5H19.9z"/>
	<path d="M30.6,17.7c-0.3,0-0.7-0.1-0.8-0.3c-0.2-0.2-0.3-0.5-0.4-0.8c-0.7,0.5-1.6,1.2-2.2,1.2c-1.3,0-2.2-1.1-2.2-2.2
		c0-0.9,0.5-1.5,1.5-1.8c1.1-0.4,2.4-0.8,2.8-1.2v-0.4c0-1.3-0.6-2-1.6-2c-0.4,0-0.7,0.2-0.8,0.4c-0.2,0.3-0.3,0.6-0.5,1.2
		c-0.1,0.3-0.3,0.4-0.5,0.4c-0.3,0-0.8-0.4-0.8-0.8c0-0.3,0.2-0.5,0.6-0.7c0.5-0.4,1.6-1,2.6-1.3c0.5,0,1.1,0.2,1.5,0.5
		c0.6,0.5,0.9,1.2,0.9,2.1v3.5c0,0.8,0.3,1.1,0.6,1.1c0.2,0,0.5-0.1,0.6-0.2l0.2,0.5L30.6,17.7z M29.3,13.1
		c-0.4,0.2-1.3,0.6-1.7,0.8c-0.7,0.3-1.1,0.6-1.1,1.3c0,1,0.7,1.4,1.3,1.4c0.5,0,1.1-0.3,1.5-0.6C29.3,15.1,29.3,14,29.3,13.1z"/>
	<path d="M37,17.5h-4.1V17c1.1-0.1,1.2-0.2,1.2-1.4v-3.7c0-1.2-0.1-1.2-1.1-1.4V10c0.9-0.1,1.7-0.4,2.5-0.7c0,0.6,0,1.4,0,2
		c0.6-0.9,1.4-1.9,2.3-1.9c0.7,0,1,0.4,1,0.9c0,0.4-0.3,0.8-0.6,1c-0.2,0.1-0.3,0.1-0.5,0c-0.3-0.3-0.5-0.5-0.8-0.5
		c-0.4,0-1,0.6-1.4,1.5v3.4c0,1.2,0.1,1.3,1.5,1.4V17.5z"/>
	<path d="M46,15.9c-1.2,1.4-2.4,1.7-3,1.7c-2.2,0-3.5-1.8-3.5-3.9c0-1.2,0.4-2.4,1.2-3.2c0.8-0.8,1.7-1.3,2.7-1.3
		c1.6,0,2.8,1.4,2.8,2.8c0,0.4-0.1,0.5-0.4,0.6c-0.4,0.1-2.7,0.2-4.8,0.3c-0.1,2.4,1.4,3.4,2.7,3.4c0.7,0,1.4-0.3,2.1-0.9L46,15.9z
		 M42.9,10c-0.8,0-1.6,0.8-1.9,2.2c1,0,2,0,3.1-0.1c0.3,0,0.4-0.1,0.4-0.4C44.6,10.9,43.9,10,42.9,10z"/>
	<path d="M52.3,17.5V17c1-0.1,1.2-0.2,1.2-1.5v-3c0-1.3-0.5-2.1-1.6-2.1c-0.7,0-1.4,0.4-2,0.9v4.2c0,1.2,0.1,1.3,1.2,1.4v0.5h-3.9
		V17c1.2-0.1,1.3-0.2,1.3-1.4v-3.7c0-1.2-0.1-1.2-1.1-1.4V10c0.9-0.1,1.8-0.4,2.5-0.7c0,0.4,0,1,0,1.4c0.4-0.3,0.8-0.5,1.2-0.8
		c0.5-0.3,1-0.5,1.5-0.5c1.4,0,2.3,1.1,2.3,2.8v3.4c0,1.2,0.1,1.3,1.2,1.4v0.5H52.3z"/>
	<path d="M63.9,15.9c-0.8,1-2,1.8-3.1,1.8c-2.3,0-3.6-1.9-3.6-3.8c0-1.4,0.6-2.6,1.8-3.5c1-0.7,2-1,2.7-1c0.8,0,1.4,0.3,1.7,0.5
		c0.3,0.2,0.3,0.3,0.3,0.5c0,0.4-0.4,0.8-0.6,0.8c-0.1,0-0.2,0-0.3-0.2c-0.6-0.5-1.2-0.8-1.8-0.8c-1.2,0-2.2,1-2.2,2.9
		c0,2.5,1.7,3.3,2.7,3.3c0.8,0,1.4-0.2,2.2-1L63.9,15.9z"/>
	<path d="M71.4,15.9c-1.2,1.4-2.4,1.7-3,1.7c-2.2,0-3.5-1.8-3.5-3.9c0-1.2,0.4-2.4,1.2-3.2c0.8-0.8,1.7-1.3,2.7-1.3
		c1.6,0,2.8,1.4,2.8,2.8c0,0.4-0.1,0.5-0.4,0.6c-0.4,0.1-2.7,0.2-4.8,0.3c-0.1,2.4,1.4,3.4,2.7,3.4c0.7,0,1.4-0.3,2.1-0.9L71.4,15.9
		z M68.3,10c-0.8,0-1.6,0.8-1.9,2.2c1,0,2,0,3.1-0.1c0.3,0,0.4-0.1,0.4-0.4C69.9,10.9,69.3,10,68.3,10z"/>
	<path d="M77,5.8h4.8v0.5c-1.4,0.1-1.7,0.3-1.7,1.9v3.1c0.4,0,0.8-0.3,1.3-0.8c1-1,2.2-2.2,3-3.1c0.5-0.6,0.5-0.8-0.3-1l-0.5-0.1
		V5.8H88v0.5c-1.4,0.2-1.8,0.3-3,1.5c-0.5,0.5-1.9,1.9-3.1,3c1.4,1.6,3.4,3.9,4.3,4.9c0.9,1,1.2,1.1,2.3,1.3v0.5h-2.9
		c-1.4-1.6-2.8-3.3-4.5-5.2c-0.4-0.5-0.7-0.5-1-0.5v3.4c0,1.6,0.2,1.7,1.7,1.8v0.5H77V17c1.5-0.1,1.6-0.3,1.6-1.8v-7
		c0-1.6-0.1-1.7-1.6-1.9V5.8z"/>
	<path d="M95.6,15.9c-1.2,1.4-2.4,1.7-3,1.7c-2.2,0-3.5-1.8-3.5-3.9c0-1.2,0.4-2.4,1.2-3.2C91,9.8,92,9.4,93,9.4
		c1.6,0,2.8,1.4,2.8,2.8c0,0.4-0.1,0.5-0.4,0.6C95,12.8,92.7,13,90.6,13c-0.1,2.4,1.4,3.4,2.7,3.4c0.7,0,1.4-0.3,2.1-0.9L95.6,15.9z
		 M92.5,10c-0.8,0-1.6,0.8-1.9,2.2c1,0,2,0,3.1-0.1c0.3,0,0.4-0.1,0.4-0.4C94.2,10.9,93.5,10,92.5,10z"/>
	<path d="M96.5,17.5V17c1.2-0.1,1.3-0.2,1.3-1.4V7c0-1.1-0.1-1.2-1.2-1.4V5.1c1-0.1,2.1-0.4,2.7-0.6c0,0.8,0,1.7,0,2.6v8.5
		c0,1.2,0.1,1.3,1.3,1.4v0.5H96.5z"/>
	<path d="M105.2,9.5c0.3-0.1,0.6-0.2,0.8-0.2c1.9,0,3.5,1.7,3.5,3.8c0,2.4-2.1,4.5-4.4,4.5c-0.8,0-1.8-0.2-2.8-0.6c0-0.5,0-1,0-1.4
		V6.9c0-1.1-0.1-1.2-1.2-1.3V5.1c0.8-0.1,2-0.4,2.6-0.6c0,0.7,0,1.4,0,2.1v3.5L105.2,9.5z M103.8,15.4c0,0.3,0,0.5,0.1,0.6
		c0.2,0.5,0.9,1,1.8,1c1.5,0,2.3-1.3,2.3-3.4c0-2.1-1.2-3.3-2.7-3.3c-0.5,0-1.1,0.2-1.5,0.3V15.4z"/>
	<path d="M118.8,10.1c-0.9,0.1-1.1,0.3-1.6,1.3c-0.5,1-0.9,2.2-2.2,5.4c-1.2,2.9-1.5,4-1.8,4.9c-0.1,0.4-0.3,0.5-0.5,0.5
		c-0.6,0-1.1-0.4-1.1-0.9c0-0.2,0.1-0.4,0.4-0.6c0.6-0.5,1-0.9,1.2-1.3c0.4-0.8,0.6-1.4,0.7-1.6c0.1-0.3,0.1-0.4,0-0.7
		c-0.7-2.1-1.7-4.3-2.2-5.6c-0.4-1-0.6-1.2-1.5-1.3V9.6h3.6v0.5c-0.8,0.1-0.9,0.3-0.7,1l1.7,4.4c0.5-1.2,1.2-3.2,1.6-4.4
		c0.2-0.7,0.1-0.9-1-1V9.6h3.3V10.1z"/>
	<path d="M136,6.3c-1.5,0.1-1.6,0.2-1.6,1.7v7.2c0,1.5,0.2,1.6,1.6,1.7v0.5h-4.8V17c1.5-0.2,1.6-0.2,1.6-1.7v-3.6h-6.2v3.6
		c0,1.5,0.1,1.5,1.6,1.7v0.5h-4.8V17c1.5-0.2,1.6-0.2,1.6-1.7V8c0-1.5-0.2-1.6-1.6-1.7V5.8h4.8v0.5c-1.4,0.1-1.6,0.3-1.6,1.7v2.9
		h6.2V8c0-1.5-0.2-1.6-1.6-1.7V5.8h4.8V6.3z"/>
	<path d="M143.4,15.9c-1.2,1.4-2.4,1.7-3,1.7c-2.2,0-3.5-1.8-3.5-3.9c0-1.2,0.4-2.4,1.2-3.2c0.8-0.8,1.7-1.3,2.7-1.3
		c1.6,0,2.8,1.4,2.8,2.8c0,0.4-0.1,0.5-0.4,0.6c-0.4,0.1-2.7,0.2-4.8,0.3c-0.1,2.4,1.4,3.4,2.7,3.4c0.7,0,1.4-0.3,2.1-0.9
		L143.4,15.9z M140.3,10c-0.8,0-1.6,0.8-1.9,2.2c1,0,2,0,3.1-0.1c0.3,0,0.4-0.1,0.4-0.4C142,10.9,141.3,10,140.3,10z"/>
	<path d="M150.5,17.7c-0.3,0-0.7-0.1-0.8-0.3c-0.2-0.2-0.3-0.5-0.4-0.8c-0.7,0.5-1.6,1.2-2.2,1.2c-1.3,0-2.2-1.1-2.2-2.2
		c0-0.9,0.5-1.5,1.5-1.8c1.1-0.4,2.4-0.8,2.8-1.2v-0.4c0-1.3-0.6-2-1.6-2c-0.4,0-0.7,0.2-0.8,0.4c-0.2,0.3-0.3,0.6-0.5,1.2
		c-0.1,0.3-0.3,0.4-0.5,0.4c-0.3,0-0.8-0.4-0.8-0.8c0-0.3,0.2-0.5,0.6-0.7c0.5-0.4,1.6-1,2.6-1.3c0.5,0,1.1,0.2,1.5,0.5
		c0.6,0.5,0.9,1.2,0.9,2.1v3.5c0,0.8,0.3,1.1,0.6,1.1c0.2,0,0.5-0.1,0.6-0.2l0.2,0.5L150.5,17.7z M149.1,13.1
		c-0.4,0.2-1.3,0.6-1.7,0.8c-0.7,0.3-1.1,0.6-1.1,1.3c0,1,0.7,1.4,1.3,1.4c0.5,0,1.1-0.3,1.5-0.6C149.1,15.1,149.1,14,149.1,13.1z"
		/>
	<path d="M156.1,17.5c-0.3,0.2-0.6,0.2-0.8,0.2c-1.2,0-1.8-0.7-1.8-2.1v-5.2h-1.2l-0.1-0.2l0.5-0.5h0.8V8.1c0.3-0.4,0.9-0.8,1.2-1.2
		l0.3,0c0,0.8-0.1,1.8-0.1,2.7h2.1c0.2,0.2,0.1,0.6-0.1,0.7H155v4.6c0,1.5,0.6,1.7,1,1.7c0.4,0,0.8-0.2,1.1-0.3l0.2,0.5L156.1,17.5z
		"/>
	<path d="M163,17.5V17c1-0.1,1.2-0.2,1.2-1.4v-3c0-1.5-0.6-2.3-1.8-2.2c-0.7,0-1.4,0.3-1.9,0.9v4.2c0,1.2,0.1,1.3,1.2,1.4v0.5h-3.9
		V17c1-0.1,1.3-0.2,1.3-1.4V6.9c0-1-0.1-1.2-1.3-1.3V5.1c1-0.1,2-0.4,2.7-0.6c0,0.7,0,1.5,0,2.2v3.9c0.6-0.6,1.6-1.3,2.6-1.3
		c1.5,0,2.5,0.9,2.5,3.1v3.2c0,1.2,0.1,1.3,1.2,1.4v0.5H163z"/>
</g>
<g>
	<path d="M15.5,63.8c-0.2-0.5-0.3-1-0.6-1.4c-0.4-0.7-0.7-0.8-1.7-0.8h-2.1c-0.6,0-0.6,0.1-0.6,0.6v4.4h2.4c1.4,0,1.5-0.2,1.8-1.6
		h0.6v4h-0.6c-0.2-1.3-0.4-1.7-1.7-1.7h-2.4v3.4c0,1.7,0.2,1.7,1.9,1.9v0.5H7.1v-0.5c1.6-0.1,1.7-0.3,1.7-1.9v-7.6
		c0-1.7-0.2-1.7-1.7-1.9v-0.5h6.1c1.7,0,2.4,0,2.7,0c0,0.7,0.1,2,0.2,3L15.5,63.8z"/>
	<path d="M24.5,60.6c3.3,0,6.2,2.5,6.2,6.3c0,4.1-2.8,6.7-6.3,6.7c-3.7,0-6.4-2.8-6.4-6.4C18,63.8,20.4,60.6,24.5,60.6z M24.1,61.3
		c-2.2,0-4.1,1.8-4.1,5.4c0,3.6,2,6.2,4.7,6.2c2.3,0,4.1-1.7,4.1-5.4C28.7,63.4,26.6,61.3,24.1,61.3z"/>
	<path d="M44,73.5c-0.2,0-0.5,0-0.7,0c-1.4-0.1-2.2-0.5-3-1.7c-0.7-1-1.4-2.2-2-3.2c-0.4-0.6-0.6-0.7-1.6-0.7h-0.7v3
		c0,1.6,0.2,1.7,1.7,1.9v0.5h-5.1v-0.5c1.6-0.2,1.7-0.3,1.7-1.9v-7.7c0-1.6-0.2-1.7-1.7-1.9v-0.5h4.9c1.4,0,2.3,0.2,3.1,0.7
		c0.8,0.5,1.3,1.4,1.3,2.5c0,1.7-1.1,2.7-2.5,3.3c0.3,0.6,1.2,1.9,1.7,2.7c0.7,1,1.1,1.5,1.5,2c0.5,0.6,1,0.8,1.4,0.9L44,73.5z
		 M36.9,67.2c1,0,1.6-0.2,2.1-0.6c0.7-0.6,1.1-1.3,1.1-2.4c0-2.1-1.4-2.8-2.8-2.8c-0.6,0-0.9,0.1-1,0.2c-0.2,0.1-0.2,0.3-0.2,0.8
		v4.7H36.9z"/>
	<path d="M55.4,66.6c1.8,0.3,3.3,1.2,3.3,3.1c0,1.3-0.7,2.3-1.9,3c-1,0.6-2,0.7-3.3,0.7h-4.7v-0.5c1.6-0.2,1.7-0.3,1.7-1.8v-7.7
		c0-1.6-0.2-1.7-1.7-1.9v-0.5h5c1.4,0,2.3,0.2,3,0.7c0.7,0.5,1.1,1.2,1.1,2.2C57.9,65.5,56.5,66.3,55.4,66.6z M53.2,66.3
		c2.1,0,3-0.8,3-2.4c0-1.3-0.8-2.4-2.7-2.4c-0.5,0-0.9,0.1-1.1,0.2c-0.2,0.1-0.2,0.3-0.2,0.9v3.7H53.2z M52.2,70.9
		c0,1.4,0.3,1.7,1.7,1.7c1.5,0,3-0.8,3-2.8c0-2-1.4-2.8-3.7-2.8h-0.9V70.9z"/>
	<path d="M60.3,73.3v-0.5c1.6-0.2,1.7-0.3,1.7-1.9v-7.6c0-1.7-0.2-1.7-1.7-1.9v-0.5h5.1v0.5c-1.6,0.2-1.7,0.3-1.7,1.9v7.6
		c0,1.7,0.2,1.7,1.7,1.9v0.5H60.3z"/>
	<path d="M73.7,63.8c-0.3-1.3-0.9-2.5-2.7-2.5c-1.5,0-2,1.1-2,2.1c0,1.3,0.8,2,2.4,2.8c2.3,1.2,3.3,2.1,3.3,3.9c0,2-1.7,3.6-4.2,3.6
		c-1.2,0-2.2-0.3-2.9-0.6c-0.2-0.5-0.4-1.8-0.5-2.9l0.6-0.2c0.4,1.3,1.2,3,3.2,3c1.4,0,2.2-1,2.2-2.2c0-1.5-0.8-2.1-2.5-3
		c-2-1.1-3.2-2-3.2-3.8c0-1.7,1.4-3.3,4-3.3c1.1,0,2.1,0.3,2.5,0.4c0.1,0.7,0.2,1.5,0.3,2.7L73.7,63.8z"/>
	<path d="M89.8,61.4c-1.6,0.2-1.7,0.3-1.7,1.9V71c0,1.6,0.2,1.7,1.7,1.8v0.5h-5.1v-0.5c1.6-0.2,1.7-0.2,1.7-1.8v-3.8h-6.6V71
		c0,1.6,0.2,1.7,1.7,1.8v0.5h-5.1v-0.5c1.6-0.2,1.7-0.2,1.7-1.8v-7.7c0-1.6-0.2-1.7-1.7-1.9v-0.5h5.1v0.5c-1.5,0.1-1.7,0.3-1.7,1.9
		v3.1h6.6v-3.1c0-1.6-0.2-1.7-1.7-1.9v-0.5h5.1V61.4z"/>
	<path d="M98.1,60.6c3.3,0,6.2,2.5,6.2,6.3c0,4.1-2.8,6.7-6.3,6.7c-3.7,0-6.4-2.8-6.4-6.4C91.6,63.8,94,60.6,98.1,60.6z M97.7,61.3
		c-2.2,0-4.1,1.8-4.1,5.4c0,3.6,2,6.2,4.7,6.2c2.3,0,4.1-1.7,4.1-5.4C102.4,63.4,100.2,61.3,97.7,61.3z"/>
	<path d="M111.1,60.9c1.4,0,2.5,0.2,3.2,0.8c0.8,0.6,1.3,1.5,1.3,2.7c0,2.8-2.4,3.9-4.2,3.9c-0.2,0-0.4,0-0.5,0l-1.3-0.3v3
		c0,1.6,0.1,1.7,1.9,1.8v0.5h-5.3v-0.5c1.7-0.2,1.7-0.3,1.7-1.9v-7.6c0-1.7-0.2-1.7-1.7-1.9v-0.5H111.1z M109.6,67.3
		c0.2,0.1,0.7,0.3,1.4,0.3c1.3,0,2.9-0.7,2.9-3.1c0-2.1-1.4-3-3-3c-0.6,0-1,0.1-1.1,0.2c-0.2,0.1-0.2,0.4-0.2,0.9V67.3z"/>
	<path d="M121.7,73.3v-0.5c1.6-0.2,1.7-0.3,1.7-1.9v-7.6c0-1.7-0.2-1.7-1.7-1.9v-0.5h5.1v0.5c-1.6,0.2-1.7,0.3-1.7,1.9v7.6
		c0,1.7,0.2,1.7,1.7,1.9v0.5H121.7z"/>
	<path d="M142.1,61.4c-1.2,0.1-1.6,0.3-1.7,1.2c0,0.6-0.1,1.4-0.1,3.2v7.7h-0.7l-8.2-10v4.8c0,1.7,0.1,2.6,0.1,3.2
		c0,1,0.5,1.3,1.9,1.4v0.5h-4.7v-0.5c1.2-0.1,1.7-0.4,1.7-1.3c0.1-0.6,0.1-1.5,0.1-3.2v-4.9c0-0.5,0-0.8-0.4-1.3
		c-0.4-0.5-0.8-0.6-1.7-0.7v-0.5h2.9l8.1,9.7v-4.7c0-1.8,0-2.6-0.1-3.2c-0.1-0.9-0.5-1.1-2-1.2v-0.5h4.7V61.4z"/>
	<path d="M158,63.9c-0.2-0.6-0.4-1.2-0.6-1.6c-0.3-0.5-0.5-0.7-1.6-0.7h-1.9V71c0,1.5,0.2,1.7,2,1.8v0.5h-5.6v-0.5
		c1.8-0.1,1.9-0.3,1.9-1.8v-9.4h-1.7c-1.1,0-1.4,0.1-1.7,0.7c-0.2,0.4-0.4,0.8-0.6,1.6h-0.6c0.1-1.2,0.2-2.4,0.3-3.5h0.4
		c0.3,0.5,0.5,0.4,1,0.4h7.6c0.5,0,0.7-0.1,1-0.4h0.5c0,0.9,0.1,2.3,0.2,3.4L158,63.9z"/>
	<path d="M173.5,61.4c-1.6,0.2-1.7,0.3-1.7,1.9V71c0,1.6,0.2,1.7,1.7,1.8v0.5h-5.1v-0.5c1.6-0.2,1.7-0.2,1.7-1.8v-3.8h-6.6V71
		c0,1.6,0.2,1.7,1.7,1.8v0.5h-5.1v-0.5c1.6-0.2,1.7-0.2,1.7-1.8v-7.7c0-1.6-0.2-1.7-1.7-1.9v-0.5h5.1v0.5c-1.5,0.1-1.7,0.3-1.7,1.9
		v3.1h6.6v-3.1c0-1.6-0.2-1.7-1.7-1.9v-0.5h5.1V61.4z"/>
	<path d="M185.4,70.3c-0.1,0.5-0.6,2.5-0.8,3.1h-9.3v-0.5c1.8-0.1,1.9-0.3,1.9-1.9v-7.6c0-1.7-0.2-1.8-1.7-1.9v-0.5h5.9
		c1.8,0,2.6,0,2.8,0c0,0.5,0.1,1.9,0.2,2.9l-0.6,0.1c-0.2-0.7-0.4-1.1-0.6-1.5c-0.3-0.6-0.7-0.8-1.9-0.8h-1.8
		c-0.6,0-0.6,0.1-0.6,0.6v4.2h2.1c1.4,0,1.5-0.3,1.8-1.6h0.6v4h-0.6c-0.3-1.4-0.4-1.6-1.8-1.6h-2.1v3.8c0,1.3,0.4,1.5,1.4,1.5h1.8
		c1.2,0,1.4-0.2,1.8-0.7c0.4-0.4,0.8-1.2,1-1.8L185.4,70.3z"/>
	<path d="M202.8,70.3c-0.3,0.9-0.8,2.3-1.1,2.9c-0.6,0.1-2.1,0.5-3.5,0.5c-4.6,0-6.9-3.1-6.9-6.4c0-3.9,3-6.6,7.3-6.6
		c1.7,0,3,0.3,3.6,0.4c0.1,0.9,0.2,2,0.4,3l-0.6,0.1c-0.4-1.3-0.8-2.1-1.8-2.5c-0.5-0.2-1.3-0.4-2-0.4c-3.2,0-4.8,2.3-4.8,5.5
		c0,3.7,1.9,6.1,5,6.1c2,0,2.9-0.9,3.9-2.8L202.8,70.3z"/>
	<path d="M218,61.4c-1.6,0.2-1.7,0.3-1.7,1.9V71c0,1.6,0.2,1.7,1.7,1.8v0.5h-5.1v-0.5c1.6-0.2,1.7-0.2,1.7-1.8v-3.8H208V71
		c0,1.6,0.2,1.7,1.7,1.8v0.5h-5.1v-0.5c1.6-0.2,1.7-0.2,1.7-1.8v-7.7c0-1.6-0.2-1.7-1.7-1.9v-0.5h5.1v0.5c-1.5,0.1-1.7,0.3-1.7,1.9
		v3.1h6.6v-3.1c0-1.6-0.2-1.7-1.7-1.9v-0.5h5.1V61.4z"/>
	<path d="M231.3,73.5c-0.3,0-0.5,0-0.7,0c-1.4-0.1-2.2-0.5-3-1.7c-0.7-1-1.4-2.2-2-3.2c-0.4-0.6-0.6-0.7-1.6-0.7h-0.7v3
		c0,1.6,0.2,1.7,1.7,1.9v0.5h-5.1v-0.5c1.6-0.2,1.7-0.3,1.7-1.9v-7.7c0-1.6-0.2-1.7-1.7-1.9v-0.5h4.9c1.4,0,2.3,0.2,3.1,0.7
		c0.8,0.5,1.3,1.4,1.3,2.5c0,1.7-1.1,2.7-2.5,3.3c0.3,0.6,1.2,1.9,1.7,2.7c0.7,1,1.1,1.5,1.5,2c0.5,0.6,1,0.8,1.4,0.9L231.3,73.5z
		 M224.2,67.2c1,0,1.6-0.2,2.1-0.6c0.7-0.6,1.1-1.3,1.1-2.4c0-2.1-1.4-2.8-2.8-2.8c-0.6,0-0.9,0.1-1,0.2c-0.2,0.1-0.2,0.3-0.2,0.8
		v4.7H224.2z"/>
	<path d="M232.1,73.3v-0.5c1.6-0.2,1.7-0.3,1.7-1.9v-7.6c0-1.7-0.2-1.7-1.7-1.9v-0.5h5.1v0.5c-1.6,0.2-1.7,0.3-1.7,1.9v7.6
		c0,1.7,0.2,1.7,1.7,1.9v0.5H232.1z"/>
	<path d="M245.5,63.8c-0.3-1.3-0.9-2.5-2.7-2.5c-1.5,0-2,1.1-2,2.1c0,1.3,0.8,2,2.4,2.8c2.3,1.2,3.3,2.1,3.3,3.9
		c0,2-1.7,3.6-4.2,3.6c-1.2,0-2.2-0.3-2.9-0.6c-0.2-0.5-0.4-1.8-0.5-2.9l0.6-0.2c0.4,1.3,1.2,3,3.2,3c1.4,0,2.2-1,2.2-2.2
		c0-1.5-0.8-2.1-2.5-3c-2-1.1-3.2-2-3.2-3.8c0-1.7,1.4-3.3,4-3.3c1.1,0,2.1,0.3,2.5,0.4c0.1,0.7,0.2,1.5,0.3,2.7L245.5,63.8z"/>
	<path d="M258.3,63.9c-0.2-0.6-0.4-1.2-0.6-1.6c-0.3-0.5-0.5-0.7-1.6-0.7h-1.9V71c0,1.5,0.2,1.7,2,1.8v0.5h-5.6v-0.5
		c1.8-0.1,1.9-0.3,1.9-1.8v-9.4h-1.7c-1.1,0-1.4,0.1-1.7,0.7c-0.2,0.4-0.4,0.8-0.6,1.6h-0.6c0.1-1.2,0.2-2.4,0.3-3.5h0.4
		c0.3,0.5,0.5,0.4,1,0.4h7.6c0.5,0,0.7-0.1,1-0.4h0.5c0,0.9,0.1,2.3,0.2,3.4L258.3,63.9z"/>
	<path d="M260.4,73.3v-0.5c1.6-0.2,1.7-0.3,1.7-1.9v-7.6c0-1.7-0.2-1.7-1.7-1.9v-0.5h5.1v0.5c-1.6,0.2-1.7,0.3-1.7,1.9v7.6
		c0,1.7,0.2,1.7,1.7,1.9v0.5H260.4z"/>
	<path d="M274.3,73.3v-0.5c1.2-0.2,1.4-0.3,1.1-1.1c-0.3-0.7-0.6-1.7-1-2.9h-4.1c-0.3,0.9-0.6,1.6-0.9,2.4c-0.4,1.2-0.2,1.4,1.4,1.6
		v0.5h-4.4v-0.5c1.2-0.2,1.5-0.3,2.2-2l4-10.1l0.6-0.1c1.2,3.3,2.5,6.9,3.7,10.2c0.6,1.7,0.8,1.8,2.2,2v0.5H274.3z M272.4,63.1
		c-0.6,1.7-1.3,3.4-1.8,4.9h3.6L272.4,63.1z"/>
	<path d="M293.1,61.4c-1.2,0.1-1.6,0.3-1.7,1.2c0,0.6-0.1,1.4-0.1,3.2v7.7h-0.7l-8.2-10v4.8c0,1.7,0.1,2.6,0.1,3.2
		c0,1,0.5,1.3,1.9,1.4v0.5h-4.7v-0.5c1.2-0.1,1.7-0.4,1.7-1.3c0.1-0.6,0.1-1.5,0.1-3.2v-4.9c0-0.5,0-0.8-0.4-1.3
		c-0.4-0.5-0.8-0.6-1.7-0.7v-0.5h2.9l8.1,9.7v-4.7c0-1.8,0-2.6-0.1-3.2c-0.1-0.9-0.5-1.1-2-1.2v-0.5h4.7V61.4z"/>
</g>
<g>
	<path d="M15.8,90.2v-0.5c1.5-0.1,1.5-0.3,1.5-2.2l0-7.4c-1.5,3.3-3.9,8.5-4.5,10.1h-0.5c-0.6-1.7-2.7-6.7-4.1-9.9
		C8,86.6,8,88,8,88.4c0,1,0.5,1.2,1.7,1.3v0.5H5.4v-0.5c1.1-0.1,1.5-0.3,1.6-1.3c0.1-0.8,0.1-1.5,0.6-8.1c0.1-0.9-0.1-1.3-1.7-1.4
		v-0.5h3.2l4,9.2l4.3-9.2h3.2v0.5c-1.6,0.2-1.8,0.3-1.7,1.6l0.1,7c0.1,1.9,0.1,2,1.7,2.2v0.5H15.8z"/>
	<path d="M31.7,87.3c-0.1,0.5-0.6,2.3-0.8,2.9h-8.8v-0.5c1.7-0.1,1.8-0.3,1.8-1.8v-7.2c0-1.6-0.2-1.7-1.6-1.8v-0.5h5.6
		c1.7,0,2.4,0,2.6,0c0,0.5,0.1,1.8,0.2,2.8l-0.5,0.1c-0.2-0.6-0.3-1-0.5-1.4c-0.3-0.6-0.7-0.7-1.8-0.7h-1.7c-0.6,0-0.6,0.1-0.6,0.6
		v4h2c1.4,0,1.5-0.3,1.7-1.5h0.6v3.7h-0.6c-0.2-1.3-0.4-1.5-1.7-1.5h-2V88c0,1.3,0.4,1.4,1.3,1.4h1.7c1.1,0,1.3-0.2,1.7-0.6
		c0.3-0.4,0.7-1.1,1-1.7L31.7,87.3z"/>
	<path d="M42.5,81.2c-0.2-0.6-0.4-1.2-0.6-1.5c-0.3-0.5-0.5-0.6-1.5-0.6h-1.8v8.8c0,1.4,0.1,1.6,1.9,1.7v0.5h-5.3v-0.5
		c1.7-0.1,1.8-0.3,1.8-1.7v-8.8h-1.7c-1,0-1.3,0.1-1.6,0.7c-0.2,0.4-0.4,0.8-0.6,1.5h-0.5c0.1-1.1,0.2-2.3,0.3-3.3h0.4
		c0.3,0.4,0.5,0.4,1,0.4h7.2c0.5,0,0.7-0.1,0.9-0.4h0.4c0,0.9,0.1,2.2,0.2,3.2L42.5,81.2z"/>
	<path d="M57.2,78.9c-1.5,0.1-1.7,0.2-1.7,1.8v7.3c0,1.5,0.2,1.6,1.7,1.7v0.5h-4.9v-0.5c1.5-0.2,1.7-0.2,1.7-1.7v-3.6h-6.2v3.6
		c0,1.5,0.1,1.6,1.6,1.7v0.5h-4.9v-0.5c1.5-0.2,1.6-0.2,1.6-1.7v-7.3c0-1.5-0.2-1.6-1.6-1.8v-0.5h4.9v0.5c-1.5,0.1-1.6,0.3-1.6,1.8
		v2.9H54v-2.9c0-1.5-0.2-1.6-1.7-1.8v-0.5h4.9V78.9z"/>
	<path d="M65.1,78.1c3.1,0,5.9,2.4,5.9,6c0,3.9-2.7,6.3-6,6.3c-3.5,0-6-2.7-6-6.1C58.9,81.1,61.2,78.1,65.1,78.1z M64.7,78.8
		c-2,0-3.9,1.7-3.9,5.1c0,3.4,1.9,5.9,4.4,5.9c2.2,0,3.9-1.6,3.9-5.1C69.1,80.8,67.1,78.8,64.7,78.8z"/>
	<path d="M77.8,78.3c2.6,0,4.2,0.5,5.3,1.6c0.9,0.9,1.5,2.1,1.5,3.9c0,2.1-0.9,3.9-2.3,4.9c-1.4,1-3.1,1.4-5.4,1.4h-4.3v-0.5
		c1.6-0.1,1.6-0.3,1.6-1.8v-7.2c0-1.6-0.2-1.6-1.6-1.8v-0.5H77.8z M75.9,87.7c0,1.4,0.6,1.7,1.9,1.7c3.3,0,4.9-2.2,4.9-5.4
		c0-2-0.7-3.5-2.1-4.4c-0.8-0.5-1.9-0.7-3.1-0.7c-0.8,0-1.3,0.1-1.4,0.3c-0.2,0.1-0.2,0.3-0.2,1V87.7z"/>
	<path d="M86.4,90.2v-0.5c1.5-0.2,1.6-0.2,1.6-1.8v-7.2c0-1.6-0.1-1.6-1.6-1.8v-0.5h4.9v0.5c-1.5,0.2-1.7,0.2-1.7,1.8v7.2
		c0,1.6,0.1,1.6,1.7,1.8v0.5H86.4z"/>
	<path d="M99.1,81.1c-0.3-1.2-0.8-2.4-2.5-2.4c-1.4,0-1.9,1-1.9,2c0,1.3,0.8,1.9,2.3,2.7c2.2,1.1,3.1,2,3.1,3.7c0,1.9-1.7,3.4-4,3.4
		c-1.1,0-2-0.3-2.8-0.6c-0.1-0.5-0.4-1.7-0.5-2.7l0.6-0.1c0.4,1.2,1.2,2.8,3.1,2.8c1.3,0,2.1-0.9,2.1-2.1c0-1.4-0.7-2-2.3-2.8
		c-1.9-1-3-1.9-3-3.6c0-1.6,1.3-3.1,3.7-3.1c1,0,2,0.3,2.4,0.3c0.1,0.7,0.1,1.4,0.3,2.6L99.1,81.1z"/>
	<path d="M111.2,81.2c-0.2-0.6-0.4-1.2-0.6-1.5c-0.3-0.5-0.5-0.6-1.5-0.6h-1.8v8.8c0,1.4,0.1,1.6,1.9,1.7v0.5h-5.3v-0.5
		c1.7-0.1,1.8-0.3,1.8-1.7v-8.8h-1.7c-1,0-1.3,0.1-1.6,0.7c-0.2,0.4-0.4,0.8-0.6,1.5h-0.5c0.1-1.1,0.2-2.3,0.3-3.3h0.4
		c0.3,0.4,0.5,0.4,1,0.4h7.2c0.5,0,0.7-0.1,0.9-0.4h0.4c0,0.9,0.1,2.2,0.2,3.2L111.2,81.2z"/>
	<path d="M126.7,87.3c-0.1,0.5-0.6,2.3-0.8,2.9h-8.8v-0.5c1.7-0.1,1.8-0.3,1.8-1.8v-7.2c0-1.6-0.2-1.7-1.6-1.8v-0.5h5.6
		c1.7,0,2.4,0,2.6,0c0,0.5,0.1,1.8,0.2,2.8l-0.5,0.1c-0.2-0.6-0.3-1-0.5-1.4c-0.3-0.6-0.7-0.7-1.8-0.7h-1.7c-0.6,0-0.6,0.1-0.6,0.6
		v4h2c1.4,0,1.5-0.3,1.7-1.5h0.6v3.7h-0.6c-0.2-1.3-0.4-1.5-1.7-1.5h-2V88c0,1.3,0.4,1.4,1.3,1.4h1.7c1.1,0,1.3-0.2,1.7-0.6
		c0.3-0.4,0.7-1.1,1-1.7L126.7,87.3z"/>
	<path d="M132.7,78.3c1.3,0,2.3,0.2,3.1,0.8c0.7,0.5,1.2,1.4,1.2,2.6c0,2.7-2.3,3.7-4,3.7c-0.2,0-0.4,0-0.5,0l-1.3-0.3v2.8
		c0,1.5,0.1,1.6,1.8,1.7v0.5h-5v-0.5c1.6-0.2,1.6-0.3,1.6-1.8v-7.2c0-1.6-0.2-1.7-1.6-1.8v-0.5H132.7z M131.2,84.4
		c0.2,0.1,0.7,0.2,1.3,0.2c1.2,0,2.7-0.6,2.7-2.9c0-2-1.3-2.8-2.8-2.8c-0.5,0-0.9,0.1-1,0.2c-0.1,0.1-0.2,0.3-0.2,0.8V84.4z"/>
	<path d="M138.5,90.2v-0.5c1.5-0.2,1.6-0.2,1.6-1.8v-7.2c0-1.6-0.1-1.6-1.6-1.8v-0.5h4.9v0.5c-1.5,0.2-1.7,0.2-1.7,1.8v7.2
		c0,1.6,0.1,1.6,1.7,1.8v0.5H138.5z"/>
	<path d="M151.2,81.1c-0.3-1.2-0.8-2.4-2.5-2.4c-1.4,0-1.9,1-1.9,2c0,1.3,0.8,1.9,2.3,2.7c2.2,1.1,3.1,2,3.1,3.7
		c0,1.9-1.7,3.4-4,3.4c-1.1,0-2-0.3-2.8-0.6c-0.1-0.5-0.4-1.7-0.5-2.7l0.6-0.1c0.4,1.2,1.2,2.8,3.1,2.8c1.3,0,2.1-0.9,2.1-2.1
		c0-1.4-0.7-2-2.3-2.8c-1.9-1-3-1.9-3-3.6c0-1.6,1.3-3.1,3.7-3.1c1,0,2,0.3,2.4,0.3c0.1,0.7,0.1,1.4,0.3,2.6L151.2,81.1z"/>
	<path d="M165,87.2c-0.3,0.9-0.7,2.2-1,2.7c-0.5,0.1-1.9,0.4-3.3,0.4c-4.3,0-6.6-2.9-6.6-6.1c0-3.7,2.8-6.3,6.9-6.3
		c1.6,0,2.8,0.3,3.4,0.4c0.1,0.8,0.2,1.9,0.3,2.8l-0.6,0.1c-0.4-1.2-0.8-2-1.7-2.3c-0.5-0.2-1.2-0.3-1.9-0.3c-3,0-4.6,2.2-4.6,5.2
		c0,3.5,1.8,5.8,4.8,5.8c1.9,0,2.8-0.9,3.7-2.7L165,87.2z"/>
	<path d="M172.9,78.1c3.1,0,5.9,2.4,5.9,6c0,3.9-2.7,6.3-6,6.3c-3.5,0-6-2.7-6-6.1C166.7,81.1,169,78.1,172.9,78.1z M172.5,78.8
		c-2,0-3.9,1.7-3.9,5.1c0,3.4,1.9,5.9,4.4,5.9c2.2,0,3.9-1.6,3.9-5.1C176.9,80.8,174.9,78.8,172.5,78.8z"/>
	<path d="M185.2,78.3c1.3,0,2.3,0.2,3.1,0.8c0.7,0.5,1.2,1.4,1.2,2.6c0,2.7-2.3,3.7-4,3.7c-0.2,0-0.4,0-0.5,0l-1.3-0.3v2.8
		c0,1.5,0.1,1.6,1.8,1.7v0.5h-5v-0.5c1.6-0.2,1.6-0.3,1.6-1.8v-7.2c0-1.6-0.2-1.7-1.6-1.8v-0.5H185.2z M183.7,84.4
		c0.2,0.1,0.7,0.2,1.3,0.2c1.2,0,2.7-0.6,2.7-2.9c0-2-1.3-2.8-2.8-2.8c-0.5,0-0.9,0.1-1,0.2c-0.1,0.1-0.2,0.3-0.2,0.8V84.4z"/>
	<path d="M196.3,90.2v-0.5c1.2-0.1,1.3-0.3,1.1-1c-0.2-0.7-0.6-1.6-1-2.8h-3.9c-0.3,0.8-0.6,1.5-0.8,2.3c-0.4,1.2-0.1,1.3,1.3,1.5
		v0.5h-4.2v-0.5c1.1-0.1,1.4-0.3,2.1-1.9l3.8-9.5l0.6-0.1c1.1,3.1,2.4,6.5,3.5,9.7c0.6,1.6,0.7,1.7,2,1.9v0.5H196.3z M194.5,80.5
		c-0.6,1.6-1.2,3.2-1.7,4.7h3.4L194.5,80.5z"/>
	<path d="M210.6,87.1c-0.1,0.6-0.7,2.5-0.8,3h-8.4v-0.5c1.7-0.2,1.8-0.3,1.8-1.8v-7.2c0-1.5-0.2-1.6-1.6-1.8v-0.5h4.9v0.5
		c-1.5,0.1-1.7,0.2-1.7,1.8V88c0,1.1,0.1,1.4,1.2,1.4c0,0,1.3,0,1.4,0c0.9,0,1.2-0.1,1.6-0.6c0.5-0.5,0.8-1.2,1.1-1.9L210.6,87.1z"
		/>
	<path d="M227,87.2c-0.3,0.9-0.7,2.2-1,2.7c-0.5,0.1-1.9,0.4-3.3,0.4c-4.3,0-6.6-2.9-6.6-6.1c0-3.7,2.8-6.3,6.9-6.3
		c1.6,0,2.8,0.3,3.4,0.4c0.1,0.8,0.2,1.9,0.3,2.8l-0.6,0.1c-0.4-1.2-0.8-2-1.7-2.3c-0.5-0.2-1.2-0.3-1.9-0.3c-3,0-4.6,2.2-4.6,5.2
		c0,3.5,1.8,5.8,4.8,5.8c1.9,0,2.8-0.9,3.7-2.7L227,87.2z"/>
	<path d="M241.4,78.9c-1.5,0.1-1.7,0.2-1.7,1.8v7.3c0,1.5,0.2,1.6,1.7,1.7v0.5h-4.9v-0.5c1.5-0.2,1.7-0.2,1.7-1.7v-3.6h-6.2v3.6
		c0,1.5,0.1,1.6,1.6,1.7v0.5h-4.9v-0.5c1.5-0.2,1.6-0.2,1.6-1.7v-7.3c0-1.5-0.2-1.6-1.6-1.8v-0.5h4.9v0.5c-1.5,0.1-1.6,0.3-1.6,1.8
		v2.9h6.2v-2.9c0-1.5-0.2-1.6-1.7-1.8v-0.5h4.9V78.9z"/>
	<path d="M255.4,78.9c-1.1,0.1-1.6,0.4-1.6,1.2c0,0.4-0.1,1.2-0.1,2.9v2c0,1.9-0.2,3.3-1.3,4.4c-0.9,0.9-2.1,1.2-3.3,1.2
		c-1.1,0-2.2-0.2-3-0.8c-1.1-0.8-1.6-2.1-1.6-4.2v-4.6c0-1.6-0.1-1.7-1.6-1.9v-0.5h4.8v0.5c-1.5,0.1-1.6,0.2-1.6,1.9v4.5
		c0,2.7,1.3,4.1,3.4,4.1c2.6,0,3.4-1.6,3.4-4.6v-1.9c0-1.7-0.1-2.4-0.1-2.9c-0.1-0.8-0.5-1.1-1.8-1.2v-0.5h4.4V78.9z"/>
	<path d="M267.2,90.3c-0.2,0-0.4,0-0.7,0c-1.3-0.1-2-0.4-2.8-1.6c-0.7-0.9-1.3-2.1-1.9-3c-0.4-0.6-0.6-0.7-1.5-0.7h-0.6v2.9
		c0,1.5,0.2,1.6,1.7,1.8v0.5h-4.9v-0.5c1.5-0.2,1.6-0.2,1.6-1.8v-7.3c0-1.5-0.2-1.6-1.6-1.8v-0.5h4.6c1.3,0,2.2,0.2,2.9,0.6
		c0.7,0.5,1.2,1.3,1.2,2.4c0,1.6-1,2.5-2.3,3.1c0.3,0.6,1.1,1.8,1.7,2.6c0.7,1,1,1.4,1.4,1.9c0.5,0.5,0.9,0.7,1.3,0.8L267.2,90.3z
		 M260.5,84.4c0.9,0,1.5-0.1,2-0.5c0.7-0.5,1-1.3,1-2.2c0-1.9-1.3-2.7-2.7-2.7c-0.5,0-0.8,0.1-1,0.2c-0.2,0.1-0.2,0.3-0.2,0.8v4.5
		H260.5z"/>
	<path d="M278.7,87.2c-0.3,0.9-0.7,2.2-1,2.7c-0.5,0.1-1.9,0.4-3.3,0.4c-4.3,0-6.6-2.9-6.6-6.1c0-3.7,2.8-6.3,6.9-6.3
		c1.6,0,2.8,0.3,3.4,0.4c0.1,0.8,0.2,1.9,0.3,2.8l-0.6,0.1c-0.4-1.2-0.8-2-1.7-2.3c-0.5-0.2-1.2-0.3-1.9-0.3c-3,0-4.6,2.2-4.6,5.2
		c0,3.5,1.8,5.8,4.8,5.8c1.9,0,2.8-0.9,3.7-2.7L278.7,87.2z"/>
	<path d="M293.1,78.9c-1.5,0.1-1.7,0.2-1.7,1.8v7.3c0,1.5,0.2,1.6,1.7,1.7v0.5h-4.9v-0.5c1.5-0.2,1.7-0.2,1.7-1.7v-3.6h-6.2v3.6
		c0,1.5,0.1,1.6,1.6,1.7v0.5h-4.9v-0.5c1.5-0.2,1.6-0.2,1.6-1.7v-7.3c0-1.5-0.2-1.6-1.6-1.8v-0.5h4.9v0.5c-1.5,0.1-1.6,0.3-1.6,1.8
		v2.9h6.2v-2.9c0-1.5-0.2-1.6-1.7-1.8v-0.5h4.9V78.9z"/>
</g>
</svg>
