<?xml version="1.0" encoding="utf-8"?>
<!-- Generator: Adobe Illustrator 25.2.3, SVG Export Plug-In . SVG Version: 6.00 Build 0)  -->
<svg version="1.1" id="Layer_1" xmlns="http://www.w3.org/2000/svg" xmlns:xlink="http://www.w3.org/1999/xlink" x="0px" y="0px"
	 viewBox="0 0 1287.2 257" style="enable-background:new 0 0 1287.2 257;" xml:space="preserve">
<g>
	<path d="M160.9,52.7c-1.1,11.7-8,24.4-15.1,33.5c-11.3,14.2-23.3,25.3-38.6,34.4c-11.3,6.9-23.7,12.9-36.1,17.5
		c-3.1,1.1-6.6,9.3-7.8,12.2c-2.2,4.4-10.2,19.7-10.2,24.2c0,7.1,5.5,9.3,11.7,9.3c1.6,0,2.2,0,3.8-0.2c5.3-0.7,10.4-1.3,15.5-3.8
		c2.4-0.9,3.8-2.7,6.2-3.5c8-2.9,14.2-7.5,18.8-14.9c2.7-4.4,7.5-12.4,7.5-18c0-2.7-1.1-4.7-4-4.7c-6,0-15.5,4.2-19.9,7.3
		c-5.3,3.5-19.5,13.1-23.1,17.3c-1.1,1.6-4,6.4-6,6.4c-0.9,0-1.3-1.3-1.3-2c0-7.3,19.5-23.1,25.7-26.6c6-3.5,15.5-11.3,22.2-12.6
		c1.8-0.2,3.5-0.2,5.5-0.2c3.5,0,9.8,0.2,9.8,5.3c0,7.8-4.7,17.3-8.4,23.5c-7.5,12.2-11.5,17.7-25.3,24.4c-8.2,4.2-28.8,12-38.3,12
		h-1.3c-7.8-0.7-16.8-9.8-18-17.7c0-1.6-0.2-2.9-0.2-4.4c0-6.6,2-12.6,5.8-18c0.7-1.1,2.7-3.3,2.7-4.9c0-0.4-0.2-0.7-0.9-0.7
		c-0.7,0-0.4,0.2-1.1,0.2c-4.4,1.1-18.6,5.8-22.2,5.8c-0.9,0-1.3-0.4-1.3-1.6c0-6.9,26.6-7.1,33.9-14c7.5-7.3,15.1-14.6,21.5-22.6
		c10.4-12.4,20.8-23.9,32.1-34.8c6.2-6,12.6-11.5,19.5-17.5c4.2-3.5,8.2-7.5,12.9-10.2c3.8-2.4,9.1-7.3,13.3-7.3
		c3.1,0,10.9,2.4,10.9,6.2L160.9,52.7z M150,62.2c-5.1,0-12.2,1.6-16.4,4.2c-6.9,4-17.7,17.1-24.4,23.3c-9.5,8.6-16,20.2-24.2,29.7
		c-1.1,1.1-5.8,5.5-5.8,7.1c0,1.1,1.3,1.3,2,1.3c3.3,0,13.7-5.1,17.1-6.9c7.1-3.5,23.1-15.1,28.4-21.1c6.2-6.9,16-19.3,20.6-27.5
		c0.9-1.8,4.2-7.5,4.2-9.3C151.5,62.4,150.2,62.2,150,62.2z"/>
	<path d="M221.6,73.9c-5.5,7.8-9.3,16.2-15.1,23.7c-7.5,10.2-15.5,18.6-25,26.8c-5.1,4.2-9.3,7.5-15.3,11.7c-2.4,1.6-5.3,4.2-7.8,6
		c-4.9,4.2-12.2,17.7-15.7,23.7c-0.9,1.6-2.4,4-2.4,5.8c0,2.4,2.7,3.5,4.4,3.5c2,0,3.8-0.4,5.5-1.1c4.7-1.6,10.6-4.2,14.4-6.9
		c6.2-4.7,12.2-9.5,18.2-14.2c1.1-0.9,2-1.3,2.7-1.3c0.9,0,1.3,0.4,1.3,1.1c0,1.8-4,4.7-5.5,6.2l-9.5,8.2
		c-6.9,5.8-27.3,18.6-36.1,18.6c-4,0-10.4-4.7-10.4-9.1c0-3.8,6.9-12.4,6.9-16.2c0-0.7-0.2-0.9-0.7-0.9c-2.4,0-6.2,4.9-8.9,4.9
		c-0.7,0-2.4-0.2-2.4-1.1c0-0.7,1.8-1.6,2.4-2.2c5.1-3.5,9.1-8,13.7-11.7c4.2-3.5,8-6.9,11.3-11.3c7.8-10.9,14.6-21.7,21.5-32.6
		c6.9-10.6,14.4-19.9,22.4-29.7c4.9-6,10-11.3,15.1-17.3c2-2.7,6.9-7.3,10.6-7.3c3.3,0,8.2,4.7,8.9,8c0.2,0.4,0.2,1.1,0.2,2
		C226.2,65.7,224.7,69.9,221.6,73.9z M214.5,66.8c-14.2,3.5-25.7,23.7-33.5,35c-3.3,5.1-7.5,9.1-10.4,14.2
		c-1.1,2.2-7.8,12.9-7.8,14.2c0,0.2,0.2,0.4,0.4,0.4c2.2-0.7,9.1-5.8,10.6-7.3c2-1.6,4.2-3.1,6-4.7c4.4-3.8,8.2-7.3,11.7-11.5
		c4.7-5.8,24.8-31,24.8-38.3C216.5,67.7,216.3,66.8,214.5,66.8z"/>
	<path d="M246.9,155.7c-4.7,4.7-28.4,24.6-34.1,26.4c-2.4,0.7-4.4,1.6-6.9,1.6c-6.6,0-6-6.9-8.4-6.9c-2.4,0-5.5,2.7-8,4.2
		c-3.8,2.9-4.9,3.1-8.6,3.1H179c-3.8,0-10.2-0.4-10.2-5.5c0-4.4,0.2-9.1,3.1-12.6c1.8-2,3.1-4.4,5.1-6.2c5.1-4.4,9.1-9.5,15.1-13.1
		c4.4-3.1,15.3-10.2,20.6-10.2c8,0,5.1,6.6,8.6,6.6c3.3,0,3.3-4.2,8-4.2c1.6,0,3.5,0.4,3.5,2.4c0,4.2-21.1,23.7-21.1,30.1
		c0,1.1,0.4,3.1,2,3.1c7.8,0,30.6-22.8,33.9-22.8c0.7,0,1.1,0.4,1.1,1.1C248.9,154,247.7,155.1,246.9,155.7z M211.8,142.6
		c-9.1,0-27.3,18.2-27.3,27.9c0,2.4,1.1,3.8,3.5,3.8c4.4,0,14.2-7.3,17.1-10.9c2.2-3.5,9.3-13.7,9.3-18
		C214.5,143.5,213.6,142.6,211.8,142.6z"/>
	<path d="M278.3,173.5c-5.3,3.8-11.3,8.6-17.7,11.1c-2.4,1.1-5.1,2.2-8,2.2c-5.5,0-11.7-6.4-11.7-12c0-8.9,14.6-16.4,14.6-18.4
		c0-1.8-1.3-3.5-3.1-3.5c-4.2,0-15.1,13.1-20.4,13.1c-0.7,0-1.8-0.2-1.8-1.1c0-0.7,10-8.2,11.3-9.5c3.5-3.1,10.6-10,13.1-13.7
		c2.4-3.5,2.7-11.5,8.4-11.5c2,0,6,2.9,6,5.3c0,3.5-4.9,6.2-4.9,9.3c0,5.1,7.5,2.7,7.5,8.2c0,0.9-0.4,1.6-1.3,2
		c-2.7,2.2-11.5,12.2-12.2,15.5c-0.4,1.3-0.7,2.4-0.7,3.5c0,2.4,1.1,3.5,3.1,3.5c7.8,0,30.8-18.8,37.5-24.4c1.1-0.9,2-1.3,2.7-1.3
		c0.9,0,1.3,0.4,1.3,1.1C302.1,155.7,281.9,171,278.3,173.5z"/>
	<path d="M284.8,163.9c8-9.1,12.2-16.6,23.3-23.1c2.4-1.3,10.2-5.8,13.3-5.8c2.4,0,3.8,2,3.8,4.4c0,6.9-4.9,12.6-10.2,16.8
		c-5.1,3.8-11.3,8-17.3,10c-1.6,0.9-1.8,1.3-2.2,2.4c-0.7,1.8-1.8,3.5-1.8,5.3c0,3.3,3.8,3.5,6.2,3.5c7.8,0,10.4-1.8,16.6-5.1
		c9.5-5.1,18.2-12.6,26.4-19.5c1.1-0.9,2-1.3,2.7-1.3c0.9,0,1.3,0.4,1.3,1.1c0,1.8-4,4.7-5.5,6.2c-12,10.2-25.7,22.8-41.9,24.6
		c-2.9,0.2-5.5,0.9-8.4,0.9c-7.3,0-11.3-4.2-11.3-11.3C279.7,169,282.1,166.8,284.8,163.9z M315.8,144.9h-0.9
		c-3.8,0-14.9,9.8-14.9,13.5c0,0.4,0.2,0.7,0.9,0.7c2.7,0,11.3-6,13.1-8.4c0.7-1.1,2-3.5,2-5.1C316,145.3,316,145.1,315.8,144.9z"/>
	<path d="M403.8,173.7c-4.2,3.3-8.2,6-12.9,7.8c-3.8,1.6-10.9,4.2-15.1,4.2s-5.8-2.9-8.2-6.2c-0.7-0.7-1.1-1.6-1.1-2.7
		c0-8,23.3-25.3,23.3-29.7c0-1.6-2.9-1.8-4-1.8c-1.3,0-2.9,0.4-4.7,1.1c-4.4,2.4-8.2,5.5-12.4,8c-4.7,2.9-8.9,7.1-12.2,11.7
		c-3.5,5.1-8.4,10-11.3,16c-0.9,1.6-2.4,2.4-4.4,2.4H340c-2.9,0-6.9-0.2-6.9-4c0-1.6,0.7-2.9,2-4.2c4.4-6,9.5-11.1,13.1-17.3
		c1.1-1.6,7.1-9.3,7.1-10.4c0-0.4-0.2-0.7-0.4-0.7c-0.4,0-17.5,15.1-19.5,15.1c-0.7,0-1.1-0.7-1.1-1.8c0-1.1,1.6-2.2,2.4-2.9
		c5.1-4.2,9.5-8.4,14.2-12.6c2.4-2.4,4.2-5.5,7.5-7.3c1.1-0.7,2.4-1.3,4-1.3c2.7,0,5.5,4,5.5,6.4c0,2.7-3.3,4.9-3.3,6.6
		c0,0.4,0.2,0.7,0.7,0.7c5.5,0,12.9-11.5,22.2-11.5c2,0,3.8-0.9,6.2-0.9c4.2,0,8.2,5.1,8.2,9.3c0,8.2-17.3,21.3-21.1,27.5
		c-0.2,0.7-0.4,1.3-0.4,2.2c0,0.7,1.8,0.9,2.7,0.9c4.4,0,11.3-3.1,14.9-5.8c8.6-6.2,16.6-12.6,25.3-19.5c0.9-0.9,1.8-1.3,2.7-1.3
		c0.7,0,1.1,0.4,1.1,1.1C426.9,155.5,406.9,171.2,403.8,173.7z"/>
	<path d="M472.3,159c-10.4,8.9-21.7,17.1-34.1,22.4c-4.7,2-7.8,4.2-13.1,4.2c-2.7,0-7.5-0.2-10-1.1c-2.7-0.9-6.6-3.5-6.6-6.9
		c0-11.7,12.4-24.4,21.3-30.8c4-3.5,16.4-12.9,21.7-12.9c6,0,11.3,1.8,11.3,8.6c0,2.9-6,10.4-9.3,10.4c-2,0-4.2-2.4-4.2-4.9
		c0-1.6,1.1-3.3,1.1-5.1c0-1.1-0.4-1.8-1.1-1.8c-3.1,0-14.4,6-15.1,8.6c-0.9,2.9-4.4,6.4-4.4,9.8c0,4.2-4.9,8.6-4.9,13.7
		c0,2.7,2.2,5.3,5.1,5.3c2.4,0,4.7-1.1,7.1-2.2l8.2-3.8c3.3-1.6,5.5-3.3,8.9-5.1l6.9-4.2c4.4-3.3,8.6-7.1,13.1-10.4
		c0.9-0.9,1.8-1.3,2.7-1.3c0.7,0,1.1,0.4,1.1,1.1C477.8,154.6,473.8,157.5,472.3,159z"/>
	<path d="M460.8,163.9c8-9.1,12.2-16.6,23.3-23.1c2.4-1.3,10.2-5.8,13.3-5.8c2.4,0,3.8,2,3.8,4.4c0,6.9-4.9,12.6-10.2,16.8
		c-5.1,3.8-11.3,8-17.3,10c-1.6,0.9-1.8,1.3-2.2,2.4c-0.7,1.8-1.8,3.5-1.8,5.3c0,3.3,3.8,3.5,6.2,3.5c7.8,0,10.4-1.8,16.6-5.1
		c9.5-5.1,18.2-12.6,26.4-19.5c1.1-0.9,2-1.3,2.7-1.3c0.9,0,1.3,0.4,1.3,1.1c0,1.8-4,4.7-5.5,6.2c-12,10.2-25.7,22.8-41.9,24.6
		c-2.9,0.2-5.5,0.9-8.4,0.9c-7.3,0-11.3-4.2-11.3-11.3C455.7,169,458.1,166.8,460.8,163.9z M491.8,144.9h-0.9
		c-3.8,0-14.9,9.8-14.9,13.5c0,0.4,0.2,0.7,0.9,0.7c2.7,0,11.3-6,13.1-8.4c0.7-1.1,2-3.5,2-5.1C492,145.3,492,145.1,491.8,144.9z"/>
	<path d="M748.3,100.8c-1.8,0-6.2-1.3-6.2-3.8c0-2.4,1.3-4.7,1.3-7.3c0-0.9,0-4.9-1.6-4.9c-1.8,0-43.2,26.2-48.8,29
		c-2,1.3-13.3,6.9-13.3,9.3c0,1.1,4.9,6.2,4.9,13.3c0,1.1,0,2-0.2,2.7c-0.7,8.2-0.2,14.9-5.8,21.3c-2.9,3.5-9.5,9.3-9.5,14
		c0,1.6-0.4,3.1-0.4,4.9c0,2.9,1.8,4.4,5.1,4.4c12.4,0,37-16.4,47-24.6l7.5-6c1.1-0.9,2-1.3,2.7-1.3c0.7,0,1.1,0.4,1.1,1.1
		c0,1.8-4,4.7-5.5,6.2c-9.3,8.2-25.7,22.2-37.2,26.6c-6,2.2-13.1,5.8-19.5,5.8c-7.1,0-16.6-5.1-16.6-13.1c0-9.5,9.5-18.4,13.1-26.6
		c2.7-6,4.2-11.7,6.6-17.7c0.2-0.2,0.2-0.4,0.2-1.1c0-3.3-3.3-6.6-6.6-6.6c-3.8,0-7.5,4.7-9.5,7.3c-5.5,8-12.2,15.5-18.6,22.6
		c-5.1,6-10.9,10.9-17.3,14.9c-8.2,5.3-26.8,13.5-36.1,15.3c-2.4,0.7-4.9,0.9-7.3,0.9c-5.1,0-7.5-2.2-10.9-6
		c-2.9-3.8-7.1-8.6-7.1-13.3c0-2.2,0.7-4.2,2.2-6.2c4.2-6,4.9-4,7.8-7.5c3.3-3.8,5.8-7.1,10.2-9.1c3.3-1.6,5.3-4.9,8.6-4.9
		c4.2,0,7.1,2.9,7.1,7.1c0,3.3-1.1,5.5-1.8,8.9c-0.9,4.2-6.6,9.3-10.4,10.4c-3.5,1.1-8.9,5.1-8.9,8.9c0,4.2,3.8,6.6,7.3,6.6
		c10.2,0,32.8-13.3,40.6-19.9c10.6-8.9,19.9-29.3,27.5-41.2c3.8-6.2,24.6-33.9,24.6-39.7c0-0.7-0.4-0.9-1.3-0.9
		c-2.7,0-5.3,0.9-8,0.9c-1.8,0-3.8-0.4-6-1.1c-4.2-1.8-6.2-3.1-8.6-6.9c-0.7-0.9-1.3-1.3-2.4-1.3c-5.3,0-10.9,10.4-12.9,14.2
		c-5.1,9.1-12.4,17.3-19.7,24.4c-2.4,2.4-14.4,13.5-17.1,13.5c-1.3,0-2-0.4-2-1.6c0-0.7,0.2-1.1,0.9-1.8c1.6-2.4,4.2-4.2,6.2-6
		c4-3.8,8.2-7.8,11.7-12c8.4-9.3,14.2-19.3,21.5-29.3c6-8.2,12-13.3,19.1-20.4c2.9-2.9,3.1-3.5,7.5-3.5c1.6,0,4.4,0.4,4.4,2.2
		c0,2.4-4,4.9-5.1,6.9c-0.9,1.6-3.5,4.2-3.5,5.3c0,1.8,2.9,4.4,4.4,6c1.8,1.8,4.2,2.2,6.6,2.2h1.6c4.4,0,8.2-0.2,11.5-4
		c7.1-7.8,16.6-12,21.9-21.1c2.4-3.5,7.3-6.6,11.5-6.6c3.3,0,5.8,2.7,5.8,6c0,1.6-0.4,2.7-1.1,3.3c-4.7,5.3-1.6,9.3-9.3,14.6
		c-4.9,3.1-13.7,9.3-19.1,11.1c-11.1,2.9-18.2,29.7-23.9,39c-0.7,0.9-0.9,1.6-0.9,2.2c0,1.6,2.7,1.6,3.5,1.6
		c5.3,0,12.9-5.8,17.3-8.4c12.6-7.5,26.4-13.7,37.9-22.6c3.5-2.9,10-8.9,13.5-10.9c4.9-2.4,6.2-10.6,12.9-10.6
		c5.8,0,7.8,10.9,7.8,15.1C761.1,87.2,756.2,100.8,748.3,100.8z"/>
	<path d="M747.4,179.2c0,4.4-10.2,10.9-14.4,10.9c-3.3,0-5.5-2.4-5.5-5.8c0-4.4,10.6-16.2,14.6-16.2c0.7,0,1.3,0,1.8,0.2
		c3.3,1.6,4.2,1.8,4.2,5.3C748,175.5,747.4,177.2,747.4,179.2z"/>
	<path d="M1042.4,54.9c-1.6,3.8-3.1,7.5-4.9,11.1c-11.1,22.8-36.8,55.4-54.8,72.7c-12.4,11.7-28.2,9.5-32.4,13.1
		c-3.5,3.3-5.1,8.2-7.5,12.4c-0.4,1.6-5.3,10.6-5.3,11.5c0,2.4,4,2.4,5.5,2.4c8,0,26.4-8,33.5-12.6c6-3.8,10.6-8.2,16.2-12.4
		c1.1-0.9,2-1.3,2.7-1.3c0.7,0,1.1,0.4,1.1,1.1c0,1.8-4,4.7-5.5,6.2c-6,5.3-18.2,15.7-25.5,18.2c-4.2,1.6-7.3,3.3-11.1,4.9
		c-6.9,2.4-13.7,5.1-21.5,5.1c-2.9,0-5.8-0.2-7.8-2.7c-2.2-2.2-5.3-10.2-5.3-13.5c0-2.7,1.3-4,2.9-5.8c2.9-2.7,4.2-6.2,7.5-8.9
		c1.6-0.9,3.5-3.3,3.5-5.1c0-0.9-1.8-1.3-3.5-1.3c-1.8,0-3.3,0.2-4,0.2c-3.8,0-7.5-0.7-12.2-0.7c-2.7,0.2-3.8,2.2-5.3,4
		c-8.2,10-27.9,26.4-40.6,30.1c-7.3,2.2-15.1,3.5-22.8,3.5c-10.9,0-19.3-1.6-19.3-14.9c0-1.8,0.2-3.5,0.9-5.1
		c2.4-6.4,4.4-5.5,9.8-8.4c1.6-0.7,2.4-1.8,3.5-2.9c4.4-4.2,8.9-7.5,14.9-9.1c10.6-2.7,20.8-2.9,31.5-2.9h8.6c2,0,3.8,0,5.3-1.8
		c3.3-4.4,5.5-9.5,8.9-14.2c6.2-9.8,12.6-19.5,19.5-28.6c1.8-2.4,13.5-17.3,13.5-18.8c0-1.6-7.1-2-8.2-2c-1.8-0.7-3.1-2.7-4.7-2.7
		c-0.7,0-1.3,0.2-2,0.9c-5.1,3.5-9.3,8.2-14,12.4c-8.9,7.8-17.7,15.5-27.3,22.8c-11.5,9.1-22.6,18.6-34.1,27.7l-9.3,7.5
		c-3.8,2.9-7.5,5.5-11.3,8.9c-1.1,1.1-3.8,4-5.3,4c-1.1,0-1.8-0.4-1.8-1.6c0-0.7,0.4-1.3,1.1-1.8c8-7.8,16.8-14.9,25.5-21.7
		c10-7.8,19.7-16,29.5-23.9c17.1-14,33.9-27.3,48.3-43.9c2.4-2.4,11.1-12.9,12.2-15.1c1.1-3.5-0.2-4,4-5.5c1.8-0.7,3.3-1.1,4.9-1.1
		c2,0,2.9,1.1,2.9,3.1c0,3.3-10.4,12.4-12.2,15.7c-0.9,1.6-2,3.5-2,5.5c0,1.6,3.5,2,4.7,2c3.8,0,5.1-0.7,7.5-3.5
		c4.7-6,7.8-12.2,13.1-17.3l11.5-9.8c2.4-2.4,5.5-3.8,8.9-3.8c3.3,0,6.4,2.2,6.4,5.8c0,2.9-2.2,5.1-4.7,6.9
		c-3.5,2.9-7.5,5.3-11.1,8.6c-1.8,1.6-4,2-6,3.5c-2.9,2-5.8,4.4-8.4,6.9c-10,9.5-16.2,22.8-22.2,35.2c-5.1,10.9-10,21.7-17.1,31.3
		c-1.1,1.1-5.1,6-5.1,7.5c0,1.1,3.1,1.3,4.9,1.3h10c2,0,4.2,0,6.2-0.2c4.4-0.2,4.2-1.3,6.6-4.7l6.9-8c5.5-6.9,10.2-14.2,15.3-21.5
		c4.4-6.9,8.9-13.3,14-19.5c6.9-8.6,16.8-18.8,25.3-25.9c7.1-6.2,22.8-19.3,32.1-19.3c3.5,0,6,2,6,5.5
		C1043.5,52.4,1043.1,53.8,1042.4,54.9z M889.7,148.9h-8.2c-8.6,0-18.2,0.4-25,4.2c-4.4,2.4-9.8,6.9-12.6,11.1
		c-2.9,4-6.9,5.5-6.9,10.9c0,5.5,8.6,6.4,12.6,6.4c6.9,0,14.9-2,20.4-5.3c5.1-2.9,24.2-20.4,24.2-25.7
		C894.1,148.9,891.2,148.9,889.7,148.9z M1033.3,54.4c-1.6,0-5.5,1.6-7.1,2.2c-12.9,4.9-30.8,25.3-39.7,35.9
		c-3.5,4.4-7.5,9.1-10,14.4c-2,4.7-4.2,6.6-7.1,10.4c-2.7,3.3-4.4,7.3-6.4,11.1c-2.4,4.2-3.8,8.4-7.1,12.2c-0.2,0.7-0.9,1.1-0.9,1.8
		c0,0.9,1.8,1.1,2.4,1.1c3.3,0,7.1-1.1,10.4-2c5.8-1.1,12.4-7.5,16.6-11.7c6.2-6.2,11.5-13.1,16.8-20.2c5.1-6.9,11.1-12.4,15.5-19.3
		c4.2-6.6,18.6-26.8,18.6-33.5C1035.5,55.8,1034.9,54.4,1033.3,54.4z"/>
	<path d="M979.2,163.9c8-9.1,12.2-16.6,23.3-23.1c2.4-1.3,10.2-5.8,13.3-5.8c2.4,0,3.8,2,3.8,4.4c0,6.9-4.9,12.6-10.2,16.8
		c-5.1,3.8-11.3,8-17.3,10c-1.6,0.9-1.8,1.3-2.2,2.4c-0.7,1.8-1.8,3.5-1.8,5.3c0,3.3,3.8,3.5,6.2,3.5c7.8,0,10.4-1.8,16.6-5.1
		c9.5-5.1,18.2-12.6,26.4-19.5c1.1-0.9,2-1.3,2.7-1.3c0.9,0,1.3,0.4,1.3,1.1c0,1.8-4,4.7-5.5,6.2c-12,10.2-25.7,22.8-41.9,24.6
		c-2.9,0.2-5.5,0.9-8.4,0.9c-7.3,0-11.3-4.2-11.3-11.3C974.1,169,976.6,166.8,979.2,163.9z M1010.3,144.9h-0.9
		c-3.8,0-14.9,9.8-14.9,13.5c0,0.4,0.2,0.7,0.9,0.7c2.7,0,11.3-6,13.1-8.4c0.7-1.1,2-3.5,2-5.1
		C1010.5,145.3,1010.5,145.1,1010.3,144.9z"/>
	<path d="M1177.8,115.4c-4.2,0.9-7.8,2.4-11.5,3.1c-4.7,0.9-9.1,2.2-13.5,3.8c-2,0.7-7.5,0.9-8.6,2.7c-3.3,5.1-7.5,9.3-11.1,14
		c-6.9,8.6-17.5,14.2-22.2,24.6c-1.1,2.9-4.4,8-4.4,10.9c0,2.4,2,2.7,3.8,2.7c5.1,0,8.6-2.4,13.7-3.5c4.4-0.7,20.6-10.4,24.4-13.7
		c3.3-2,5.5-4.2,8.4-6.6c1.1-0.9,2-1.3,2.7-1.3c0.9,0,1.3,0.4,1.3,1.1c0,1.8-4,4.7-5.5,6.2c-8.6,7.5-34.6,24.2-44.1,25.9
		c-3.3,0.7-6.2,1.6-9.5,1.6c-6.9,0-4.9-0.9-8.9-4.2c-2.7-2.2-0.2-6.6-3.3-6.6c-5.3,0-17.1,10.4-27.7,10.4c-10.2,0-6.9-6-11.5-6
		c-1.6,0-10.4,5.8-17.5,6.4c-1.6,0-3.1,0.2-4.9,0.2c-1.8,0-3.3-0.4-4.7-1.1c-2-1.3-6.9-6.6-6.9-9.1c0-1.8,0.7-5.8,2.2-6.6
		c2.9-1.8,8.6-8.2,12.2-11.1c4.7-3.8,10.2-8,15.7-10.4c6-2.4,11.3-4.7,17.3-6.6c3.3-1.1,7.5-3.5,11.1-3.5c2.4,0,4,1.1,6,1.1
		c2.7,0,3.5-3.5,7.1-3.5h1.3c1.8,0,4.4,0,4.4,2.4c-0.7,2.4-8,9.8-9.8,11.5c-2,2.2-3.8,4.4-5.3,6.6c-1.1,1.6-2,3.1-3.1,4.2
		c-3.8,4.2-6,9.5-8.9,14.2c-0.4,0.7-0.7,1.6-0.7,2.2c0,1.6,1.1,2.2,2.7,2.2h1.3c4.7-0.7,15.3-6.9,19.3-9.8
		c13.3-8.9,22.4-19.9,31-33.3c0.7-1.8,4.9-6.6,4.9-8.4l-0.9-0.4c-3.5,0-7.3,1.1-10.9,1.1c-11.3,0.4-22.6,0.7-33.9,0.7
		c-8.2,0-16.4,0.2-24.4,0.2h-1.8c-3.3,0-8.2-0.2-8.2-2.2c0-1.1,4.4-2.4,5.5-2.4c1.8,0,3.5,0.9,5.1,0.9c15.7,0,31-1.8,46.3-1.8
		c8,0,16.8,0,24.8-1.6c2.7-0.7,3.3-1.1,4.9-3.5c3.5-5.1,5.5-10.9,9.8-15.5c3.3-3.5,7.5-7.5,10-12c1.6-2.7,2.9-7.8,5.8-8.6
		c2.4-0.9,5.8-3.1,7.5-3.1c1.6,0,2,2,2,3.1c0,1.1-0.4,2-1.1,3.1c-0.7,1.6-0.7,3.3-1.3,4.9c-1.1,2.9-2.4,5.8-4.2,8.4
		c-2.9,5.1-5.5,9.5-8.9,14.2c0,0-0.2,0.4-0.9,1.3l-0.9,1.3c0,0.7,0.7,0.9,1.8,0.9c10.4,0,20.8-6.4,32.1-6.4c0.9,0,2,0.4,2,1.3
		C1185.4,113.6,1178.9,114.7,1177.8,115.4z M1067.5,148.4c-2.7,0-14.2,4-16.8,5.5c-6,2.4-18.2,13.7-18.2,20.2c0,2,1.3,6,3.8,6
		c2.9,0,5.3-2.2,8-2.9c4.4-1.3,26.8-21.1,26.8-25.9C1071,149.3,1069.2,148.4,1067.5,148.4z"/>
	<path d="M1243,65.7c-4,7.5-4.9,11.5-11.1,19.3c-7.1,8.4-14.4,16.8-22.4,24.6c-4.7,4.4-8.6,9.5-13.3,14.2l-9.8,8.4
		c-1.1,1.1-6,5.8-6,7.3c0,0.4,0.2,0.7,0.4,0.7c2.7,0,10.9-8,16.8-8h3.5c2.4,0,4.2,0.2,6.2,2.2c2.4,2.4,6.2,4.7,6.2,8.2
		c0,5.1-8.9,14.4-12,18.6c-1.8,2.4-10.2,12.6-10.2,14c0,1.8,2.4,2.4,4,2.4c7.8,0,14.9-6.6,20.8-11.1l17.7-13.5
		c1.1-0.9,2-1.3,2.7-1.3c0.7,0,1.1,0.4,1.1,1.1c0,1.1-1.1,2.2-1.8,2.9c-2.9,2.9-6.4,5.5-9.8,8.4c-6.2,5.3-12.6,11.5-19.5,15.7
		c-5.1,3.3-10.6,4.9-16.4,4.9c-7.3,0-8.4-0.9-11.3-7.1c-0.7-1.6-1.1-2.9-1.1-4.4c0-2.9,2-5.1,3.8-7.5c4.2-5.1,8.9-9.3,12.2-15.3
		c1.6-2.4,5.3-7.8,5.3-10.4c0-1.6-0.7-2.2-2-2.2c-1.8,0-5.5,2.4-7.1,3.3c-5.1,2.9-11.3,5.8-15.5,10c-3.3,2.7-4.7,4.7-6.2,8.4
		c-1.8,4.4-4.4,8.4-6.2,12.6c-1.8,4.4-0.9,7.3-5.8,10c-4.2,2.4-8.2,4.9-13.3,4.9c-3.3,0-3.3-1.6-3.3-4.2c0-5.3,12-13.7,12-18.4
		c0-0.4-0.2-0.9-0.4-0.9c-0.7,0-3.5,2-5.5,2.7c-0.2,0-0.7,0.2-0.9,0.2c-0.7,0-1.1-0.9-1.1-1.8c0-0.9,1.6-2.2,3.3-3.5l8-6.2
		c3.8-3.1,6.9-5.8,9.5-9.8c4.2-6.4,8.9-12.2,13.1-19.1c7.1-11.7,12.4-23.7,21.1-35c7.8-9.8,15.3-19.9,24.2-28.6
		c2.4-2.4,14-14.9,16.4-14.9c0.7,0,1.1-0.2,1.8-0.2c2.4,0,5.8,3.1,5.8,5.5C1247,56.4,1244.8,62.4,1243,65.7z M1233.5,63.1
		c-6.2,0-26.6,26.6-29.9,31.7c-2,2.7-3.8,5.8-5.8,9.1c-1.8,3.1-9.1,14.6-9.1,17.5c0,0.4,0.2,0.7,0.4,0.7c2.4,0,16-15.7,18.4-18.2
		c7.8-8.9,17.3-17.1,23.7-27.5c2.4-3.3,3.8-6.6,3.8-10.9C1235,64.8,1234.6,63.1,1233.5,63.1z"/>
</g>
</svg>
