<?xml version="1.0" encoding="utf-8"?>
<!-- Generator: Adobe Illustrator 25.2.3, SVG Export Plug-In . SVG Version: 6.00 Build 0)  -->
<svg version="1.1" id="Layer_1" xmlns="http://www.w3.org/2000/svg" xmlns:xlink="http://www.w3.org/1999/xlink" x="0px" y="0px"
	 viewBox="0 0 432 109.6" style="enable-background:new 0 0 432 109.6;" xml:space="preserve">
<style type="text/css">
	.st0{fill:#F1BA43;}
	.st1{fill:#FFFFFF;}
</style>
<g>
	<g>
		<path class="st0" d="M48.7,82.1c-4.7,0-9.2-0.8-13.5-2.5s-7.8-4.1-10.9-7.2c-3.1-3.1-5.5-6.8-7.4-10.9c-1.8-4.3-2.7-8.8-2.7-13.8
			v-0.2c0-4.9,1-9.4,2.7-13.6s4.3-8,7.4-11.1s6.8-5.7,11.1-7.4s9-2.7,14-2.7c3.5,0,6.6,0.4,9.4,1c2.7,0.6,5.3,1.6,7.6,2.9
			c2.3,1.2,4.5,2.7,6.2,4.5c1.9,1.8,3.5,3.5,5.1,5.7L63.9,37.5c-1.9-2.3-4.1-4.3-6.2-5.7c-2.3-1.4-5.1-2.1-8.4-2.1
			c-2.3,0-4.5,0.4-6.4,1.4c-1.9,1-3.5,2.1-5.1,3.7c-1.4,1.6-2.5,3.5-3.3,5.7c-0.8,2.1-1.2,4.5-1.2,6.8v0.2c0,2.5,0.4,4.9,1.2,7
			c0.8,2.1,1.9,4.1,3.3,5.7c1.4,1.6,3.1,2.9,5.1,3.7c1.9,1,4.1,1.4,6.4,1.4c1.8,0,3.3-0.2,4.7-0.6c1.4-0.4,2.7-1,3.9-1.8
			s2.3-1.6,3.3-2.5s2.1-2.1,3.1-3.3l13.8,9.9c-1.6,2.1-3.3,4.1-5.3,6c-1.9,1.8-4.1,3.5-6.4,4.7c-2.3,1.4-5.1,2.3-8,3.1
			C55.7,81.7,52.4,82.1,48.7,82.1z"/>
		<path class="st0" d="M86.1,14.1h18.5v27.1l23-27.1h21.8l-25.2,28.7l26.1,38h-22.2L111.4,56l-6.8,7.6v17.2H86.1V14.1z"/>
	</g>
</g>
<g>
	<path class="st1" d="M158.6,27.1h7.7v10.7h10V27.1h7.7v28.5h-7.7V44.9h-10v10.7h-7.7V27.1z"/>
	<path class="st1" d="M189.1,27.1h22.4v6.6h-14.8v4.5h13.4v6.2h-13.4V49H212v6.8h-22.8V27.1z"/>
	<path class="st1" d="M225.6,26.9h7.5l11.9,28.7h-8.2l-1.9-5.3H224l-1.9,5.3h-8.2L225.6,26.9z M232.3,44.3l-3.1-8.2l-3.3,8.2
		C226,44.3,232.3,44.3,232.3,44.3z"/>
	<path class="st1" d="M254.5,34h-8.4v-6.8h24.7V34h-8.4v21.6h-7.7V34H254.5z"/>
	<path class="st1" d="M274.3,27.1h7.7v10.7h10V27.1h7.7v28.5h-7.7V44.9h-10v10.7h-7.7V27.1z"/>
</g>
<g>
	<path class="st1" d="M167,77.6h-9.9l-1-4.1l10.7-12.7h5.8v12.3h2.5v4.5h-2.7v3.9H167V77.6z M167,73.5v-6l-4.9,6H167z"/>
	<path class="st1" d="M186.1,61.1h10.5c1.2,0,2.3,0.2,3.3,0.4c1,0.4,1.8,0.8,2.3,1.4c0.4,0.4,0.8,1,1,1.4c0.2,0.4,0.4,1.2,0.4,1.9
		l0,0c0,1.2-0.4,2.1-1,2.7c-0.6,0.8-1.4,1.2-2.1,1.8c1.2,0.4,2.1,1,2.9,1.8s1.2,1.9,1.2,3.3l0,0c0,1.8-0.6,3.1-1.9,4.3
		c-1.4,1-3.3,1.6-5.8,1.6h-10.7L186.1,61.1L186.1,61.1z M195.1,69.4c1,0,1.6-0.2,1.9-0.4c0.4-0.4,0.6-0.8,0.6-1.4l0,0
		c0-0.6-0.2-1-0.6-1.2c-0.4-0.4-1.2-0.4-1.9-0.4h-3.5v3.5h3.5V69.4z M195.9,77c1,0,1.6-0.2,1.9-0.4c0.4-0.4,0.6-0.8,0.6-1.4l0,0
		c0-0.6-0.2-1-0.6-1.4c-0.4-0.4-1.2-0.4-1.9-0.4h-4.3v3.7h4.3V77z"/>
	<path class="st1" d="M207,61.1h5.7v20.5H207V61.1z"/>
	<path class="st1" d="M224.5,82.1c-1.9,0-3.5-0.4-5.3-0.8c-1.8-0.6-3.1-1.4-4.5-2.5l3.1-3.7c1.9,1.6,4.3,2.5,6.6,2.5
		c0.8,0,1.4-0.2,1.8-0.4c0.4-0.4,0.6-0.6,0.6-1.2l0,0c0-0.2,0-0.4-0.2-0.6c-0.2-0.2-0.4-0.4-0.4-0.4c-0.4-0.2-0.6-0.4-1.2-0.4
		c-0.4-0.2-1-0.4-1.8-0.4c-1.2-0.4-1.9-0.4-2.9-0.8c-1-0.4-1.8-0.6-2.5-1.2c-0.6-0.4-1.2-1.2-1.6-1.8c-0.4-0.8-0.6-1.6-0.6-2.7l0,0
		c0-1,0.2-1.9,0.4-2.7c0.4-0.8,1-1.6,1.6-1.9c0.6-0.4,1.6-1.2,2.5-1.4c1-0.4,1.9-0.4,3.3-0.4c1.8,0,3.3,0.2,4.7,0.6
		c1.4,0.4,2.7,1.2,3.7,1.9l-2.7,4.1c-1-0.6-1.9-1.2-2.7-1.6c-1-0.4-1.9-0.4-2.7-0.4c-0.6,0-1.2,0.2-1.6,0.4c-0.4,0.4-0.4,0.6-0.4,1
		l0,0c0,0.2,0,0.4,0.2,0.6c0.2,0.2,0.4,0.4,0.6,0.4c0.4,0.2,0.6,0.4,1.2,0.4c0.4,0.2,1.2,0.4,1.8,0.4c1.2,0.4,2.1,0.6,3.1,1
		c1,0.4,1.8,0.8,2.3,1.2c0.6,0.4,1.2,1.2,1.6,1.8c0.4,0.6,0.4,1.6,0.4,2.5l0,0c0,1.2-0.2,1.9-0.6,2.7c-0.4,0.8-1,1.6-1.8,1.9
		c-0.8,0.6-1.6,1-2.7,1.2C226.9,81.9,225.9,82.1,224.5,82.1z"/>
	<path class="st1" d="M235.6,61.1h5.7v7.8h7.4v-7.8h5.7v20.5h-5.7v-7.8h-7.4v7.8h-5.7V61.1z"/>
	<path class="st1" d="M268.2,82.1c-1.6,0-2.9-0.4-4.5-0.8c-1.4-0.6-2.5-1.2-3.5-2.1s-1.8-1.9-2.3-3.5c-0.6-1.2-0.8-2.7-0.8-4.1l0,0
		c0-1.4,0.4-2.7,0.8-4.1c0.6-1.2,1.4-2.5,2.3-3.5c1-1,2.1-1.8,3.5-2.3c1.2-0.6,2.7-0.8,4.5-0.8s2.9,0.4,4.5,0.8
		c1.4,0.4,2.5,1.2,3.5,2.1s1.8,1.9,2.3,3.5c0.6,1.2,0.8,2.7,0.8,4.1l0,0c0,1.4-0.4,2.7-0.8,4.1c-0.6,1.2-1.4,2.5-2.3,3.5
		s-2.1,1.8-3.5,2.3C271.5,81.9,269.8,82.1,268.2,82.1z M268.2,76.8c0.8,0,1.6-0.2,2.1-0.4c0.6-0.4,1.2-0.6,1.8-1.2
		c0.4-0.4,0.8-1.2,1.2-1.8c0.4-0.6,0.4-1.4,0.4-1.9l0,0c0-0.8-0.2-1.4-0.4-1.9c-0.4-0.6-0.6-1.2-1.2-1.8c-0.4-0.4-1.2-1-1.8-1.2
		c-0.6-0.4-1.4-0.4-2.1-0.4s-1.6,0.2-2.1,0.4c-0.6,0.4-1.2,0.6-1.8,1.2c-0.4,0.4-0.8,1.2-1.2,1.8c-0.4,0.6-0.4,1.4-0.4,1.9l0,0
		c0,0.8,0.2,1.4,0.4,1.9c0.4,0.6,0.6,1.2,1.2,1.8c0.4,0.4,1,1,1.8,1.2C266.8,76.8,267.4,76.8,268.2,76.8z"/>
	<path class="st1" d="M282.4,61.1h8.8c1.2,0,2.5,0.2,3.5,0.4c1.2,0.4,1.9,0.8,2.7,1.4c0.8,0.6,1.2,1.4,1.8,2.3
		c0.4,1,0.6,1.9,0.6,2.9l0,0c0,1.2-0.2,2.3-0.6,3.1c-0.4,1-1.2,1.8-1.9,2.3c-0.8,0.6-1.8,1.2-2.7,1.4c-1.2,0.4-2.1,0.4-3.5,0.4h-2.7
		v5.8h-5.7V61.1H282.4z M290.6,71.4c1,0,1.9-0.4,2.3-0.8c0.6-0.4,1-1.2,1-1.9l0,0c0-1-0.4-1.6-1-1.9c-0.6-0.4-1.4-0.6-2.3-0.6h-2.7
		v5.5h2.7V71.4z"/>
</g>
<path class="st1" d="M157.1,18.9L157.1,18.9c0-3.1,2.1-5.5,5.5-5.5c1.9,0,3.3,0.6,4.1,1.6l-1.6,1.8c-0.6-0.6-1.6-1.2-2.5-1.2
	c-1.8,0-3.1,1.6-3.1,3.3l0,0c0,1.8,1.4,3.3,3.1,3.3c1.4,0,1.9-0.4,2.9-1.4l1.6,1.6c-1.2,1.2-2.3,1.9-4.3,1.9
	C159.4,24.4,157.1,22.1,157.1,18.9z"/>
<path class="st1" d="M168.6,13.7h2.3v8.6h5.3v2.1h-7.6C168.6,24.4,168.6,13.7,168.6,13.7z"/>
<path class="st1" d="M181.8,13.5h2.1l4.7,10.7h-2.3l-0.8-2.3h-4.7l-1,2.3h-2.3L181.8,13.5z M184.2,19.9l-1.4-3.5l-1.4,3.5H184.2z"/>
<path class="st1" d="M190,13.7h4.9c1.4,0,2.3,0.4,3.1,1.2c0.6,0.6,0.8,1.6,0.8,2.3l0,0c0,1.8-0.8,2.9-2.1,3.3l2.5,3.7h-2.5l-2.1-3.5
	l0,0h-1.8v3.5h-2.3V13.7C190.4,13.7,190,13.7,190,13.7z M194.7,18.7c1.2,0,1.8-0.6,1.8-1.6l0,0c0-1.2-0.6-1.6-1.8-1.6h-2.3v3.1
	C192.4,18.7,194.7,18.7,194.7,18.7z"/>
<path class="st1" d="M201.1,13.7h8.2v2.1h-5.7v2.3h5.1v2.1h-5.1v2.1h5.7v2.1h-8.2V13.7z"/>
<path class="st1" d="M211.3,13.7h2.1l5.1,6.6v-6.6h2.3v10.7h-1.9l-5.3-6.8v6.8h-2.3V13.7z"/>
<path class="st1" d="M222.8,18.9L222.8,18.9c0-3.1,2.1-5.5,5.5-5.5c1.9,0,3.3,0.6,4.1,1.6l-1.6,1.8c-0.8-0.6-1.8-1.2-2.5-1.2
	c-1.8,0-3.1,1.6-3.1,3.3l0,0c0,1.8,1.4,3.3,3.1,3.3c1.4,0,1.9-0.4,2.9-1.4l1.6,1.6c-1.2,1.2-2.3,1.9-4.3,1.9
	C225.1,24.4,222.8,22.1,222.8,18.9z"/>
<path class="st1" d="M234.3,13.7h8.2v2.1h-5.7v2.3h5.1v2.1h-5.1v2.1h5.7v2.1h-8.2C234.3,24.6,234.3,13.7,234.3,13.7z"/>
<path class="st1" d="M249.3,13.7h2.3v4.7l4.3-4.7h2.9l-4.3,4.7l4.7,6h-2.9l-3.3-4.7l-1.4,1.4v3.3h-2.3V13.7z"/>
<path class="st1" d="M260.2,13.7h8.2v2.1h-5.7v2.3h5.1v2.1h-5.1v2.1h5.7v2.1h-8.2V13.7z"/>
<path class="st1" d="M270.5,13.7h2.3v8.6h5.3v2.1h-7.6V13.7z"/>
<path class="st1" d="M279.9,13.7h5.1c1.4,0,2.1,0.4,2.9,0.8c0.4,0.4,0.6,1.2,0.6,1.8l0,0c0,1.2-0.6,1.9-1.4,2.1
	c1.4,0.4,1.9,1.2,1.9,2.5l0,0c0,1.9-1.6,2.9-3.9,2.9h-5.1V13.5h-0.2V13.7z M284.4,17.8c1.2,0,1.8-0.4,1.8-1.2l0,0
	c0-0.6-0.4-1.2-1.6-1.2h-2.3v2.1h2.1V17.8z M285,22.3c1.2,0,1.8-0.4,1.8-1.2l0,0c0-0.6-0.4-1.2-1.8-1.2h-2.5v2.1h2.5V22.3z"/>
<path class="st1" d="M293.3,20.1l-4.1-6.4h2.5l2.5,4.1l2.5-4.1h2.5l-4.1,6.4v4.1H293v-4.1H293.3z"/>
<path class="st0" d="M307.2,67.1L332.3,48c3.1-2.3,5.3-4.5,6.6-6.2s1.9-3.7,1.9-5.8s-0.8-3.7-2.1-5.1c-1.4-1.2-3.1-1.8-5.5-1.8
	c-2.1,0-4.3,0.8-6.4,2.1c-1.9,1.4-4.3,3.5-7,6.6l-12.5-10.5c1.8-2.3,3.5-4.3,5.5-6c1.8-1.8,3.9-3.3,6-4.5c2.1-1.2,4.5-2.1,7-2.7
	c2.5-0.6,5.5-1,8.8-1c3.7,0,7,0.6,9.9,1.6c3.1,1,5.7,2.5,7.8,4.3c2.1,1.8,3.9,4.1,5.1,6.8c1.2,2.7,1.8,5.5,1.8,8.6v0.2
	c0,2.7-0.4,5.1-1,7.2c-0.6,2.1-1.8,4.1-3.1,5.8c-1.4,1.8-2.9,3.5-4.9,5.3c-1.9,1.8-4.1,3.3-6.6,5.3l-11.5,8h27.7v15.2h-53V67.1
	H307.2z"/>
<path class="st0" d="M367,67.1L392.2,48c3.1-2.3,5.3-4.5,6.6-6.2s1.9-3.7,1.9-5.8s-0.8-3.7-2.1-5.1c-1.4-1.2-3.1-1.8-5.5-1.8
	c-2.3,0-4.3,0.8-6.4,2.1c-1.9,1.4-4.3,3.5-7,6.6l-12.5-10.5c1.8-2.3,3.5-4.3,5.5-6c1.8-1.8,3.9-3.3,6-4.5c2.1-1.2,4.5-2.1,7-2.7
	c2.5-0.6,5.5-1,8.8-1c3.7,0,7,0.6,9.9,1.6c3.1,1,5.7,2.5,7.8,4.3s3.9,4.1,5.1,6.8s1.8,5.5,1.8,8.6v0.2c0,2.7-0.4,5.1-1,7.2
	c-0.6,2.1-1.8,4.1-3.1,5.8c-1.4,1.8-2.9,3.5-4.9,5.3c-1.9,1.8-4.1,3.3-6.6,5.3l-11.5,8h27.7v15.2h-53V67.1H367z"/>
<g>
	<path class="st1" d="M12.4,88.8h6.4v1.7h-4.6v1.8h4v1.7h-4v3.3h-1.9V88.8z"/>
	<path class="st1" d="M20,93L20,93c0-2.4,1.9-4.4,4.5-4.4c2.6,0,4.5,1.9,4.5,4.3v0c0,2.4-1.9,4.4-4.5,4.4C21.9,97.4,20,95.4,20,93z
		 M27,93L27,93c0-1.5-1.1-2.7-2.6-2.7c-1.5,0-2.5,1.2-2.5,2.6v0c0,1.4,1.1,2.7,2.6,2.7S27,94.5,27,93z"/>
	<path class="st1" d="M30.6,88.8h3.9c1.1,0,1.9,0.3,2.5,0.9c0.5,0.5,0.7,1.1,0.7,1.9v0c0,1.4-0.7,2.2-1.8,2.6l2.1,3h-2.2l-1.8-2.7h0
		h-1.4v2.7h-1.9V88.8z M34.4,92.9c0.9,0,1.4-0.5,1.4-1.2v0c0-0.8-0.6-1.2-1.5-1.2h-1.8v2.4H34.4z"/>
	<path class="st1" d="M43,88.8h3.9c1,0,1.7,0.3,2.2,0.8c0.4,0.4,0.6,0.9,0.6,1.4v0c0,1-0.5,1.5-1.1,1.8c1,0.4,1.6,0.9,1.6,2.1v0
		c0,1.5-1.3,2.3-3.2,2.3h-4V88.8z M46.5,92.2c0.8,0,1.3-0.3,1.3-0.9v0c0-0.6-0.4-0.9-1.2-0.9h-1.8v1.8H46.5z M47,95.6
		c0.8,0,1.3-0.3,1.3-0.9v0c0-0.6-0.4-0.9-1.4-0.9h-2.1v1.9H47z"/>
	<path class="st1" d="M51.8,88.8h1.9v8.5h-1.9V88.8z"/>
	<path class="st1" d="M55.2,96l1.1-1.3c0.8,0.6,1.6,1,2.5,1c0.8,0,1.2-0.3,1.2-0.8v0c0-0.5-0.3-0.7-1.7-1.1
		c-1.7-0.4-2.8-0.9-2.8-2.6v0c0-1.5,1.2-2.5,3-2.5c1.2,0,2.3,0.4,3.1,1.1l-1,1.4c-0.7-0.5-1.5-0.8-2.2-0.8s-1.1,0.3-1.1,0.7v0
		c0,0.6,0.4,0.7,1.8,1.1c1.7,0.4,2.7,1.1,2.7,2.5v0c0,1.7-1.3,2.6-3.1,2.6C57.5,97.3,56.2,96.9,55.2,96z"/>
	<path class="st1" d="M63.5,88.8h1.9v3.3h3.4v-3.3h1.9v8.5h-1.9v-3.4h-3.4v3.4h-1.9V88.8z"/>
	<path class="st1" d="M72.3,93L72.3,93c0-2.4,1.9-4.4,4.5-4.4c2.6,0,4.5,1.9,4.5,4.3v0c0,2.4-1.9,4.4-4.5,4.4
		C74.2,97.4,72.3,95.4,72.3,93z M79.3,93L79.3,93c0-1.5-1.1-2.7-2.6-2.7c-1.5,0-2.5,1.2-2.5,2.6v0c0,1.4,1.1,2.7,2.6,2.7
		C78.3,95.6,79.3,94.5,79.3,93z"/>
	<path class="st1" d="M82.9,88.8h3.5c2,0,3.2,1.2,3.2,2.9v0c0,2-1.5,3-3.4,3h-1.4v2.5h-1.9V88.8z M86.3,93c0.9,0,1.5-0.6,1.5-1.3v0
		c0-0.8-0.6-1.3-1.5-1.3h-1.4V93H86.3z"/>
	<path class="st1" d="M94.7,88.8h1.9v8.5h-1.9V88.8z"/>
	<path class="st1" d="M98.7,88.8h1.7l4,5.2v-5.2h1.8v8.5h-1.6l-4.1-5.4v5.4h-1.8V88.8z"/>
	<path class="st1" d="M113.8,90.5h-2.6v-1.7h7v1.7h-2.6v6.7h-1.9V90.5z"/>
	<path class="st1" d="M119.7,88.8h1.9v3.3h3.4v-3.3h1.9v8.5H125v-3.4h-3.4v3.4h-1.9V88.8z"/>
	<path class="st1" d="M128.8,88.8h6.4v1.7h-4.5v1.7h4v1.7h-4v1.8h4.6v1.7h-6.4V88.8z"/>
	<path class="st1" d="M140.2,93L140.2,93c0-2.4,1.8-4.4,4.4-4.4c1.6,0,2.5,0.5,3.3,1.3l-1.2,1.4c-0.7-0.6-1.3-1-2.2-1
		c-1.4,0-2.5,1.2-2.5,2.6v0c0,1.4,1,2.7,2.5,2.7c1,0,1.6-0.4,2.2-1l1.2,1.2c-0.9,0.9-1.8,1.5-3.5,1.5C142,97.4,140.2,95.4,140.2,93z
		"/>
	<path class="st1" d="M149.5,88.8h1.9v3.3h3.4v-3.3h1.9v8.5h-1.9v-3.4h-3.4v3.4h-1.9V88.8z"/>
	<path class="st1" d="M158.6,88.8h3.9c1.1,0,1.9,0.3,2.5,0.9c0.5,0.5,0.7,1.1,0.7,1.9v0c0,1.4-0.7,2.2-1.8,2.6l2.1,3h-2.2l-1.8-2.7
		h0h-1.4v2.7h-1.9V88.8z M162.4,92.9c0.9,0,1.4-0.5,1.4-1.2v0c0-0.8-0.6-1.2-1.5-1.2h-1.8v2.4H162.4z"/>
	<path class="st1" d="M167.5,88.8h1.9v8.5h-1.9V88.8z"/>
	<path class="st1" d="M170.9,96l1.1-1.3c0.8,0.6,1.6,1,2.5,1c0.8,0,1.2-0.3,1.2-0.8v0c0-0.5-0.3-0.7-1.7-1.1
		c-1.7-0.4-2.8-0.9-2.8-2.6v0c0-1.5,1.2-2.5,3-2.5c1.2,0,2.3,0.4,3.1,1.1l-1,1.4c-0.7-0.5-1.5-0.8-2.2-0.8c-0.7,0-1.1,0.3-1.1,0.7v0
		c0,0.6,0.4,0.7,1.8,1.1c1.7,0.4,2.7,1.1,2.7,2.5v0c0,1.7-1.3,2.6-3.1,2.6C173.2,97.3,171.9,96.9,170.9,96z"/>
	<path class="st1" d="M181,90.5h-2.6v-1.7h7v1.7h-2.6v6.7H181V90.5z"/>
	<path class="st1" d="M186.9,88.8h1.9v8.5h-1.9V88.8z"/>
	<path class="st1" d="M193.8,88.7h1.7l3.6,8.5h-1.9l-0.8-1.9h-3.6l-0.8,1.9h-1.9L193.8,88.7z M195.7,93.7l-1.1-2.7l-1.1,2.7H195.7z"
		/>
	<path class="st1" d="M200.4,88.8h1.7l4,5.2v-5.2h1.8v8.5h-1.6l-4.1-5.4v5.4h-1.8V88.8z"/>
	<path class="st1" d="M213.6,88.8h2l2.2,3.6l2.2-3.6h2v8.5h-1.8v-5.5l-2.4,3.6h0l-2.4-3.6v5.5h-1.8V88.8z"/>
	<path class="st1" d="M224.1,88.8h6.4v1.7h-4.5v1.7h4v1.7h-4v1.8h4.6v1.7h-6.4V88.8z"/>
	<path class="st1" d="M234.1,90.5h-2.6v-1.7h7v1.7H236v6.7h-1.9V90.5z"/>
	<path class="st1" d="M240,88.8h1.9v3.3h3.4v-3.3h1.9v8.5h-1.9v-3.4h-3.4v3.4H240V88.8z"/>
	<path class="st1" d="M248.8,93L248.8,93c0-2.4,1.9-4.4,4.5-4.4c2.6,0,4.5,1.9,4.5,4.3v0c0,2.4-1.9,4.4-4.5,4.4
		C250.6,97.4,248.8,95.4,248.8,93z M255.8,93L255.8,93c0-1.5-1.1-2.7-2.6-2.7c-1.5,0-2.5,1.2-2.5,2.6v0c0,1.4,1.1,2.7,2.6,2.7
		C254.8,95.6,255.8,94.5,255.8,93z"/>
	<path class="st1" d="M259.4,88.8h3.3c2.7,0,4.5,1.8,4.5,4.2v0c0,2.4-1.8,4.2-4.5,4.2h-3.3V88.8z M262.7,95.5c1.5,0,2.5-1,2.5-2.5v0
		c0-1.5-1-2.5-2.5-2.5h-1.4v5.1H262.7z"/>
	<path class="st1" d="M268.9,88.8h1.9v8.5h-1.9V88.8z"/>
	<path class="st1" d="M272.3,96l1.1-1.3c0.8,0.6,1.6,1,2.5,1c0.8,0,1.2-0.3,1.2-0.8v0c0-0.5-0.3-0.7-1.7-1.1
		c-1.7-0.4-2.8-0.9-2.8-2.6v0c0-1.5,1.2-2.5,3-2.5c1.2,0,2.3,0.4,3.1,1.1l-1,1.4c-0.7-0.5-1.5-0.8-2.2-0.8c-0.7,0-1.1,0.3-1.1,0.7v0
		c0,0.6,0.4,0.7,1.8,1.1c1.7,0.4,2.7,1.1,2.7,2.5v0c0,1.7-1.3,2.6-3.1,2.6C274.6,97.3,273.3,96.9,272.3,96z"/>
	<path class="st1" d="M282.4,90.5h-2.6v-1.7h7v1.7h-2.6v6.7h-1.9V90.5z"/>
	<path class="st1" d="M291.9,88.8h6.4v1.7h-4.5v1.7h4v1.7h-4v1.8h4.6v1.7h-6.4V88.8z"/>
	<path class="st1" d="M300,88.8h3.5c2,0,3.2,1.2,3.2,2.9v0c0,2-1.5,3-3.4,3h-1.4v2.5H300V88.8z M303.3,93c0.9,0,1.5-0.6,1.5-1.3v0
		c0-0.8-0.6-1.3-1.5-1.3h-1.4V93H303.3z"/>
	<path class="st1" d="M308.2,88.8h1.9v8.5h-1.9V88.8z"/>
	<path class="st1" d="M311.5,96l1.1-1.3c0.8,0.6,1.6,1,2.5,1c0.8,0,1.2-0.3,1.2-0.8v0c0-0.5-0.3-0.7-1.7-1.1
		c-1.7-0.4-2.8-0.9-2.8-2.6v0c0-1.5,1.2-2.5,3-2.5c1.2,0,2.3,0.4,3.1,1.1l-1,1.4c-0.7-0.5-1.5-0.8-2.2-0.8c-0.7,0-1.1,0.3-1.1,0.7v0
		c0,0.6,0.4,0.7,1.8,1.1c1.7,0.4,2.7,1.1,2.7,2.5v0c0,1.7-1.3,2.6-3.1,2.6C313.9,97.3,312.6,96.9,311.5,96z"/>
	<path class="st1" d="M319.5,93L319.5,93c0-2.4,1.8-4.4,4.4-4.4c1.6,0,2.5,0.5,3.3,1.3l-1.2,1.4c-0.7-0.6-1.3-1-2.2-1
		c-1.4,0-2.5,1.2-2.5,2.6v0c0,1.4,1,2.7,2.5,2.7c1,0,1.6-0.4,2.2-1l1.2,1.2c-0.9,0.9-1.8,1.5-3.5,1.5
		C321.3,97.4,319.5,95.4,319.5,93z"/>
	<path class="st1" d="M328.2,93L328.2,93c0-2.4,1.9-4.4,4.5-4.4c2.6,0,4.5,1.9,4.5,4.3v0c0,2.4-1.9,4.4-4.5,4.4
		C330,97.4,328.2,95.4,328.2,93z M335.2,93L335.2,93c0-1.5-1.1-2.7-2.6-2.7c-1.5,0-2.5,1.2-2.5,2.6v0c0,1.4,1.1,2.7,2.6,2.7
		C334.2,95.6,335.2,94.5,335.2,93z"/>
	<path class="st1" d="M338.8,88.8h3.5c2,0,3.2,1.2,3.2,2.9v0c0,2-1.5,3-3.4,3h-1.4v2.5h-1.9V88.8z M342.1,93c0.9,0,1.5-0.6,1.5-1.3
		v0c0-0.8-0.6-1.3-1.5-1.3h-1.4V93H342.1z"/>
	<path class="st1" d="M348.9,88.7h1.7l3.6,8.5h-1.9l-0.8-1.9H348l-0.8,1.9h-1.9L348.9,88.7z M350.9,93.7l-1.1-2.7l-1.1,2.7H350.9z"
		/>
	<path class="st1" d="M355.6,88.8h1.9v6.8h4.2v1.7h-6.1V88.8z"/>
	<path class="st1" d="M366.3,93L366.3,93c0-2.4,1.8-4.4,4.4-4.4c1.6,0,2.5,0.5,3.3,1.3l-1.2,1.4c-0.7-0.6-1.3-1-2.2-1
		c-1.4,0-2.5,1.2-2.5,2.6v0c0,1.4,1,2.7,2.5,2.7c1,0,1.6-0.4,2.2-1l1.2,1.2c-0.9,0.9-1.8,1.5-3.5,1.5
		C368.1,97.4,366.3,95.4,366.3,93z"/>
	<path class="st1" d="M375.6,88.8h1.9v3.3h3.4v-3.3h1.9v8.5h-1.9v-3.4h-3.4v3.4h-1.9V88.8z"/>
	<path class="st1" d="M384.6,93.6v-4.8h1.9v4.8c0,1.4,0.7,2.1,1.8,2.1c1.1,0,1.8-0.7,1.8-2v-4.8h1.9v4.8c0,2.6-1.4,3.8-3.7,3.8
		C386,97.3,384.6,96.1,384.6,93.6z"/>
	<path class="st1" d="M393.9,88.8h3.9c1.1,0,1.9,0.3,2.5,0.9c0.5,0.5,0.7,1.1,0.7,1.9v0c0,1.4-0.7,2.2-1.8,2.6l2.1,3H399l-1.8-2.7h0
		h-1.4v2.7h-1.9V88.8z M397.6,92.9c0.9,0,1.4-0.5,1.4-1.2v0c0-0.8-0.6-1.2-1.5-1.2h-1.8v2.4H397.6z"/>
	<path class="st1" d="M402.2,93L402.2,93c0-2.4,1.8-4.4,4.4-4.4c1.6,0,2.5,0.5,3.3,1.3l-1.2,1.4c-0.7-0.6-1.3-1-2.2-1
		c-1.4,0-2.5,1.2-2.5,2.6v0c0,1.4,1,2.7,2.5,2.7c1,0,1.6-0.4,2.2-1l1.2,1.2c-0.9,0.9-1.8,1.5-3.5,1.5
		C404.1,97.4,402.2,95.4,402.2,93z"/>
	<path class="st1" d="M411.5,88.8h1.9v3.3h3.4v-3.3h1.9v8.5h-1.9v-3.4h-3.4v3.4h-1.9V88.8z"/>
</g>
</svg>
